<svg id="Logotype_White" data-name="Logotype White" xmlns="http://www.w3.org/2000/svg" viewBox="0 0 538.5 147.43">
  <defs>
    <style>
      .cls-1 {
        fill: #ffffff;
        	max-height: 90px;
      }

      .cls-2 {
        fill: #f39229;
        	max-height: 90px;
      }
    </style>
  </defs>
  <path class="cls-1" d="M196.72,62.66,196,59c-1,1.95-4.23,4.28-8.47,4.33-3.91,0-7.38-1-10.05-3.76-3.52-3.67-4.38-8.19-4.38-13.71s.72-9.91,4.38-13.57a14.52,14.52,0,0,1,10.05-4,14,14,0,0,1,10,3.85A10.41,10.41,0,0,1,200.62,39h-6.28a5.3,5.3,0,0,0-1.48-3.09,6.77,6.77,0,0,0-5.38-2A7.92,7.92,0,0,0,182,36.09c-2.34,2.43-2.62,6.62-2.62,9.72s.33,7.42,2.67,9.85a7.67,7.67,0,0,0,5.47,2.14,6.82,6.82,0,0,0,5.05-1.95c1.81-1.9,2.19-4,2.19-6.57h-8.05V44.19h14V62.66Z" transform="translate(-18.69 -12.03)"/>
  <path class="cls-1" d="M228.28,52.14H211.72A6.48,6.48,0,0,0,213.53,57a5.19,5.19,0,0,0,3.66,1.53,4.65,4.65,0,0,0,3.62-1.19,4.52,4.52,0,0,0,1.19-2.1h5.71a9.75,9.75,0,0,1-2.09,4.57,10.61,10.61,0,0,1-8.33,3.48,10.79,10.79,0,0,1-7.81-3.05,13.39,13.39,0,0,1-3.81-9.9,13.89,13.89,0,0,1,3.57-9.9,10.72,10.72,0,0,1,7.9-3.15,10.46,10.46,0,0,1,9.05,4.58,13.85,13.85,0,0,1,2.14,8.61s-.05,1.14-.05,1.67m-7.42-8.67a5,5,0,0,0-3.76-1.42A5.1,5.1,0,0,0,213,44a6.11,6.11,0,0,0-1.28,3.85h10.71a6.48,6.48,0,0,0-1.52-4.33" transform="translate(-18.69 -12.03)"/>
  <path class="cls-1" d="M249,62.66V47.47c0-2.9-.95-4.66-4.09-4.66A4.64,4.64,0,0,0,240.67,46c-.86,1.95-.81,4.52-.81,6.62V62.66h-6V37.9h5l.43,3.19a8.17,8.17,0,0,1,7.29-3.81c5.28,0,8.37,3.72,8.37,8.86V62.66Z" transform="translate(-18.69 -12.03)"/>
  <path class="cls-1" d="M282.94,52.14H266.37A6.56,6.56,0,0,0,268.18,57a5.24,5.24,0,0,0,3.67,1.53,4.65,4.65,0,0,0,3.62-1.19,4.52,4.52,0,0,0,1.19-2.1h5.71a9.75,9.75,0,0,1-2.09,4.57,10.61,10.61,0,0,1-8.34,3.48,10.78,10.78,0,0,1-7.8-3.05,13.39,13.39,0,0,1-3.81-9.9,13.89,13.89,0,0,1,3.57-9.9,10.72,10.72,0,0,1,7.9-3.15,10.46,10.46,0,0,1,9.05,4.58A13.85,13.85,0,0,1,283,50.47s-.05,1.14-.05,1.67m-7.43-8.67a5,5,0,0,0-3.75-1.42,5.1,5.1,0,0,0-4.15,1.9,6,6,0,0,0-1.28,3.85H277a6.43,6.43,0,0,0-1.53-4.33" transform="translate(-18.69 -12.03)"/>
  <polygon class="cls-1" points="281.44 50.63 275.11 50.63 265.92 25.87 272.2 25.87 278.39 43.3 284.25 25.87 290.39 25.87 281.44 50.63"/>
  <path class="cls-1" d="M331.41,63a3.88,3.88,0,0,1-4.19-3.47c-1.14,2-4,3.71-7.52,3.71-5.9,0-8.95-3.71-8.95-7.76,0-4.71,3.67-7.43,8.38-7.76l7.28-.53V45.71c0-2.33-.8-3.9-4.18-3.9-2.77,0-4.38,1.23-4.53,3.52h-5.76c.33-5.57,4.76-8,10.29-8,4.23,0,7.85,1.34,9.28,5a13.66,13.66,0,0,1,.71,5v9.19c0,1.14.38,1.57,1.38,1.57a3.78,3.78,0,0,0,.76-.09v4.37a6,6,0,0,1-2.95.67m-5-11.38-6.28.48c-1.81.14-3.57,1.24-3.57,3.24a3.25,3.25,0,0,0,3.52,3.09c3.72,0,6.33-2,6.33-5.66Z" transform="translate(-18.69 -12.03)"/>
  <path class="cls-1" d="M197.48,106.45c-2.62,2-5.76,2.28-9,2.28H175.05V74.93h13.43a14.25,14.25,0,0,1,7.81,1.86,8.76,8.76,0,0,1,3.9,7.33c0,2.76-1.28,5.85-4.14,7.14a8.27,8.27,0,0,1,4.86,7.62,9.08,9.08,0,0,1-3.43,7.57m-8.76-26.24h-7.57v8.48h7.71c2.76,0,5.1-1,5.1-4.19s-2.48-4.29-5.24-4.29m.19,13.62h-7.76v9.38h7.57c2.86,0,5.95-1,5.95-4.47,0-3.62-2.52-4.91-5.76-4.91" transform="translate(-18.69 -12.03)"/>
  <path class="cls-1" d="M222.14,108.69l-.42-3.24c-1.19,2.43-4,3.85-7.1,3.85-5.29,0-8.57-3.57-8.57-8.85V83.93H212V99.12c0,2.9,1.14,4.71,4.29,4.71a4.09,4.09,0,0,0,3-1.24c1.43-1.33,1.81-3.57,1.81-5.57V83.93h6v24.76Z" transform="translate(-18.69 -12.03)"/>
  <path class="cls-1" d="M251.62,106.45c-2,2-5.1,2.85-8.48,2.85a11.32,11.32,0,0,1-8-2.85,8.18,8.18,0,0,1-2.62-5.76h5.57a4,4,0,0,0,1.34,2.9,5.55,5.55,0,0,0,3.76,1.1c2,0,5-.43,5-3.15a2.61,2.61,0,0,0-2.47-2.62c-2.19-.33-4.67-.47-6.86-1a6.86,6.86,0,0,1-5.66-6.62,7,7,0,0,1,2.52-5.56,11.3,11.3,0,0,1,7.52-2.48,10.67,10.67,0,0,1,7.76,2.9,7.69,7.69,0,0,1,2.19,5.1h-5.66a3.4,3.4,0,0,0-1-2.34,4.81,4.81,0,0,0-3.24-1.14,6.17,6.17,0,0,0-2.57.38,2.84,2.84,0,0,0-1.9,2.62c0,1.76,1.52,2.29,2.85,2.48,2.24.28,2.86.33,5.29.71,3.9.62,6.76,3.1,6.76,7a7.41,7.41,0,0,1-2.14,5.43" transform="translate(-18.69 -12.03)"/>
  <path class="cls-1" d="M259.23,74.36h6.38V80.5h-6.38Zm.2,9.57h6v24.76h-6Z" transform="translate(-18.69 -12.03)"/>
  <path class="cls-1" d="M288.09,108.69V93.5c0-2.91-1-4.67-4.1-4.67A4.64,4.64,0,0,0,279.71,92c-.86,2-.81,4.53-.81,6.62v10.1H273V83.93h5l.42,3.19a8.17,8.17,0,0,1,7.29-3.81c5.28,0,8.38,3.71,8.38,8.85v16.53Z" transform="translate(-18.69 -12.03)"/>
  <path class="cls-1" d="M322,98.16H305.42a6.52,6.52,0,0,0,1.81,4.86,5.19,5.19,0,0,0,3.66,1.52,4.63,4.63,0,0,0,3.62-1.19,4.54,4.54,0,0,0,1.19-2.09h5.71a9.8,9.8,0,0,1-2.09,4.57A10.62,10.62,0,0,1,311,109.3a10.83,10.83,0,0,1-7.81-3,13.45,13.45,0,0,1-3.81-9.91,13.89,13.89,0,0,1,3.57-9.9,10.76,10.76,0,0,1,7.91-3.14,10.47,10.47,0,0,1,9,4.57A13.86,13.86,0,0,1,322,96.5s0,1.14,0,1.66m-7.43-8.66a5,5,0,0,0-3.76-1.43,5.1,5.1,0,0,0-4.15,1.9,6.13,6.13,0,0,0-1.28,3.86h10.71a6.39,6.39,0,0,0-1.52-4.33" transform="translate(-18.69 -12.03)"/>
  <path class="cls-1" d="M344.7,106.45c-2,2-5.1,2.85-8.48,2.85a11.32,11.32,0,0,1-8-2.85,8.23,8.23,0,0,1-2.62-5.76h5.58a4,4,0,0,0,1.33,2.9,5.54,5.54,0,0,0,3.76,1.1c2,0,5.05-.43,5.05-3.15a2.62,2.62,0,0,0-2.48-2.62c-2.19-.33-4.67-.47-6.86-1a6.86,6.86,0,0,1-5.66-6.62,7,7,0,0,1,2.52-5.56,11.3,11.3,0,0,1,7.52-2.48c3,0,6,1,7.76,2.9a7.7,7.7,0,0,1,2.2,5.1h-5.67a3.4,3.4,0,0,0-1-2.34,4.79,4.79,0,0,0-3.24-1.14,6.14,6.14,0,0,0-2.57.38,2.84,2.84,0,0,0-1.9,2.62c0,1.76,1.52,2.29,2.85,2.48,2.24.28,2.86.33,5.29.71,3.9.62,6.76,3.1,6.76,7a7.41,7.41,0,0,1-2.14,5.43" transform="translate(-18.69 -12.03)"/>
  <path class="cls-1" d="M369.5,106.45c-2,2-5.09,2.85-8.47,2.85a11.32,11.32,0,0,1-8-2.85,8.18,8.18,0,0,1-2.62-5.76H356a4,4,0,0,0,1.33,2.9,5.58,5.58,0,0,0,3.77,1.1c2,0,5-.43,5-3.15a2.61,2.61,0,0,0-2.48-2.62c-2.18-.33-4.66-.47-6.85-1a6.87,6.87,0,0,1-5.67-6.62,7,7,0,0,1,2.53-5.56,11.3,11.3,0,0,1,7.52-2.48,10.68,10.68,0,0,1,7.76,2.9,7.74,7.74,0,0,1,2.19,5.1h-5.66a3.45,3.45,0,0,0-1-2.34,4.83,4.83,0,0,0-3.24-1.14,6.14,6.14,0,0,0-2.57.38,2.85,2.85,0,0,0-1.91,2.62c0,1.76,1.53,2.29,2.86,2.48,2.24.28,2.85.33,5.29.71,3.9.62,6.75,3.1,6.75,7a7.37,7.37,0,0,1-2.14,5.43" transform="translate(-18.69 -12.03)"/>
  <path class="cls-1" d="M409.16,105.69c-2.56,2.57-6.52,3.61-10.66,3.61a14.88,14.88,0,0,1-10.1-3.47A10.82,10.82,0,0,1,384.88,98h6.29a5.92,5.92,0,0,0,1.76,4.14c1.43,1.43,3.71,1.81,5.67,1.81,2.33,0,4.56-.47,5.85-1.81a4.18,4.18,0,0,0,1.33-3.23c0-2.48-1.9-3.62-4-4-2.28-.43-5.23-.53-7.47-.91-4.67-.76-8.57-3.81-8.57-9.42a9.33,9.33,0,0,1,2.95-6.67,14.44,14.44,0,0,1,9.91-3.57A13.89,13.89,0,0,1,408,77.6a10.23,10.23,0,0,1,3.43,7.19h-6.28a5.52,5.52,0,0,0-1.48-3.34,7.8,7.8,0,0,0-5.14-1.81,7.61,7.61,0,0,0-5.48,1.86,3.92,3.92,0,0,0-1.14,2.86c0,2.19,1.43,3.33,3.43,3.66s5.14.57,7.33.86c5.05.71,9.28,4,9.28,9.76a9.51,9.51,0,0,1-2.81,7" transform="translate(-18.69 -12.03)"/>
  <path class="cls-1" d="M435.35,105.3a10.79,10.79,0,0,1-8.47,3.91,11.26,11.26,0,0,1-8.62-3.91,14.16,14.16,0,0,1-2.72-9,14.21,14.21,0,0,1,2.72-9.05,11.29,11.29,0,0,1,8.62-3.9,10.82,10.82,0,0,1,8.47,3.9,9.68,9.68,0,0,1,1.9,5.38H431.4a4.73,4.73,0,0,0-.72-2.28,4.31,4.31,0,0,0-3.8-1.86A4.86,4.86,0,0,0,423.26,90c-1.43,1.58-1.67,4-1.67,6.29s.24,4.67,1.67,6.23a4.86,4.86,0,0,0,3.62,1.58,4.34,4.34,0,0,0,3.8-1.86,4.73,4.73,0,0,0,.72-2.28h5.85a9.62,9.62,0,0,1-1.9,5.37" transform="translate(-18.69 -12.03)"/>
  <path class="cls-1" d="M457.44,108.69V93.4c0-2.85-.95-4.62-4.09-4.62-3.57,0-5.1,3.81-5.1,6.86v13H442.3V74.31h5.95V86.55A8.3,8.3,0,0,1,455,83.31c5.28,0,8.37,3.76,8.37,8.85v16.53Z" transform="translate(-18.69 -12.03)"/>
  <path class="cls-1" d="M489,105.45a11.68,11.68,0,0,1-17.33,0c-1.86-2.34-2.9-5-2.9-9.14s1-6.81,2.9-9.14a11.66,11.66,0,0,1,17.33,0c1.86,2.33,2.9,5,2.9,9.14s-1,6.8-2.9,9.14m-4.9-15.38a5.3,5.3,0,0,0-7.53,0c-1.43,1.57-1.76,3.9-1.76,6.24s.33,4.66,1.76,6.24a5.32,5.32,0,0,0,7.53,0c1.43-1.58,1.76-3.91,1.76-6.24s-.33-4.67-1.76-6.24" transform="translate(-18.69 -12.03)"/>
  <path class="cls-1" d="M516.1,105.45a11.68,11.68,0,0,1-17.33,0c-1.86-2.34-2.91-5-2.91-9.14s1.05-6.81,2.91-9.14a11.66,11.66,0,0,1,17.33,0c1.86,2.33,2.91,5,2.91,9.14s-1,6.8-2.91,9.14m-4.9-15.38a5.3,5.3,0,0,0-7.53,0c-1.42,1.57-1.76,3.9-1.76,6.24s.34,4.66,1.76,6.24a5.32,5.32,0,0,0,7.53,0c1.42-1.58,1.76-3.91,1.76-6.24s-.34-4.67-1.76-6.24" transform="translate(-18.69 -12.03)"/>
  <path class="cls-1" d="M531.34,109c-4.05,0-6.76-2-6.76-6.67v-28h6v27c0,1.43.34,2.39,2.38,2.39.53,0,.67,0,1,0v5a9.73,9.73,0,0,1-2.61.33" transform="translate(-18.69 -12.03)"/>
  <rect class="cls-1" x="132.29" width="2.57" height="147.43"/>
  <path class="cls-1" d="M546.49,78.51a11.86,11.86,0,0,1,2.11-.18,3.49,3.49,0,0,1,2.47.7,2.14,2.14,0,0,1,.66,1.61,2.24,2.24,0,0,1-1.6,2.18v0a2.13,2.13,0,0,1,1.25,1.72,13.39,13.39,0,0,0,.66,2.34H550.9a11,11,0,0,1-.57-2c-.25-1.17-.7-1.61-1.7-1.65h-1v3.69h-1.1Zm1.1,3.88h1.13c1.17,0,1.92-.65,1.92-1.62s-.8-1.58-2-1.59a4.63,4.63,0,0,0-1.09.1Z" transform="translate(-18.69 -12.03)"/>
  <path class="cls-1" d="M548.83,91a8.36,8.36,0,1,1,8.36-8.36A8.36,8.36,0,0,1,548.83,91m0-15.66a7.3,7.3,0,1,0,7.31,7.3,7.31,7.31,0,0,0-7.31-7.3" transform="translate(-18.69 -12.03)"/>
  <path class="cls-1" d="M72.43,59.81a5.34,5.34,0,0,0-3.54-1.47,7.57,7.57,0,0,0-3.42,1,23.9,23.9,0,0,1-2.66,1,1.88,1.88,0,0,0-.75,2c.17,1,.48,1.29.69,1.41s.36.16.41-.37a1.13,1.13,0,0,1,1.14-1c.49.07.48.5,1.46.72s1.72.1,2,.44a4.57,4.57,0,0,1,.46.68.24.24,0,0,1-.1.33,14.09,14.09,0,0,1-3.3.34,12.11,12.11,0,0,0-1.27-.06c-.16.06-.1.29.5.73a4.31,4.31,0,0,0,1.91.9c.73.11,1.64,1.29,1.64,1.29a.71.71,0,0,1,.06.43c0,.27,0,.54,0,.8a2.4,2.4,0,0,0-.89,1.52A2.52,2.52,0,0,0,67,72.22a2.19,2.19,0,0,0-1.17,1.66A2.54,2.54,0,0,0,66,75.53a2.15,2.15,0,0,0-1.17,1.66,2.66,2.66,0,0,0,0,1.23,4.43,4.43,0,0,1-5.09.64c-1.23-.71-2.34-2.2-.76-5.36s4.56-6.21-.84-12.19a50.49,50.49,0,0,0-9.64-8.06c-8.85,6.41-9.59,11.44-9.59,11.44s.22.18.35.26c1.74,1.17,2.84,1.72,2.87,2s-1.22.17-2.32,0a13,13,0,0,0-2-.16,7.88,7.88,0,0,0-.69,1.48,6.87,6.87,0,0,0,1.16,1,29.41,29.41,0,0,0,4.2,2.29c.85.29,1.6.5.92.82s-4.19,1.41-4.9,1.87-1,1.21,1,1.68a17.11,17.11,0,0,0,3.61.54c.47,0,.68.21-.39.71a17.8,17.8,0,0,0-4.19,3.12c-.65.83-.36,1.32,1.15,1.36s4.26-.07,4.65-.14,1.4-.11.64.32a13.15,13.15,0,0,0-4.83,4.8s-.82,1.54.93.93a38.24,38.24,0,0,1,4.66-1.36c.39,0-.55,1.07-1.22,1.83a19.23,19.23,0,0,0-2.33,5.76c0,.79,2.19-.1,3.48-1.07s3-2.37,2.89-1.69-2.39,5.7-2.68,6.92-.07,1.5.93,1.18,4.91-4.05,5.19-4.37.9-.53.5.4a26.13,26.13,0,0,0-.82,5.33c0,.82,0,1.26.9.61a51.61,51.61,0,0,0,4.15-4.33c.5-.62.93-.79.79-.15a19.5,19.5,0,0,0-.32,4.08c.11,1.12.28,1.29,1,.65a51.67,51.67,0,0,0,4.55-7.77c.39-1.15.71-1.4.86-.72A14.7,14.7,0,0,0,65,96.25c.36.46.11.72-.54,1.22a19,19,0,0,0-3.08,4.19s-1.16,2.27-1.5,2.67-1.75.19-1.29,1.12.78,1.13.72,1.31-.36.68-1.26.2c-.28-.16-4.1-1.31-5.76-.82s-2.16,1.43-1.84,2,.71.43,2.14.43a19,19,0,0,1,2.85,0c.71.14-.15.76-.72.66l-2.19,0a2.13,2.13,0,0,0-1.5.46c-.39.39-.93,2.22-.54,2.79s1,.13,1.77-.31A5.08,5.08,0,0,1,56,110.92a12.31,12.31,0,0,1,3.91,1.59,6.24,6.24,0,0,0,2.29.43c.72,0,1.61-.25,1.18-1.11a2.25,2.25,0,0,0-1.61-1.54,10.58,10.58,0,0,1-2-.71c-.46-.1,1.1-1.54,1.24-1.69s1.08,1.43,2.08,1.58,1.19-.22,1-.76a1.35,1.35,0,0,1,.14-1.4s3.1-5.45,3.62-4.4a4.12,4.12,0,0,1,.57,1.83c0,.9.89,5.56-1.93,8.24s-4.42,3.11-5.71,3.22-1.57.5-.57.82a7.77,7.77,0,0,0,5.79-.15c.26-.11.14.17.05.22a35.15,35.15,0,0,0-2.93,2.16c-.21.32.29.82,2.08.32A6.06,6.06,0,0,0,68,118.21s.82-1,1.18,0a14,14,0,0,0,3.07,7.89Zm-3.56,1.76c-.59,0-1-.2-1-.4s.44-.35,1-.4a.72.72,0,0,0-.13.42.71.71,0,0,0,.11.38m.35,0h0a.68.68,0,0,0,.12-.4.6.6,0,0,0-.15-.43h0c.77,0,1.38.18,1.38.41s-.61.42-1.37.42" transform="translate(-18.69 -12.03)"/>
  <path class="cls-1" d="M82.35,50.28c4.67,5.42,18,29.71,29.83,50.84a41,41,0,0,0-35.79-57v81.94c.81,0,1.6-.1,2.39-.19v-2.28a1.59,1.59,0,0,1,1.41-1.73l0-72.94a3.71,3.71,0,0,1,2.14,1.37" transform="translate(-18.69 -12.03)"/>
  <path class="cls-1" d="M83.11,123c1.46.16,1.62.87,1.62,1.59v1.86a42.11,42.11,0,0,0,14.47-6.11c-3-15.61-10.86-54.58-14.64-61.75Z" transform="translate(-18.69 -12.03)"/>
  <path class="cls-1" d="M38.73,116.18l-.34-1.47-.21-.13-2.85,2.61-.9-.42-.18.16,2.92,3.19.18-.17-.54-1.15,2.28-2.09a4.28,4.28,0,0,1,.59.53c1.2,1.3,1.41,3.28-.94,5.44s-4,2-4.92,1-.64-2.64.07-4.47l-.28-.26-2.6,2.6.22.23.73,0a5.76,5.76,0,0,0,1.25,2.06,5.16,5.16,0,0,0,7.41.44,4.72,4.72,0,0,0,.46-6.84,4.44,4.44,0,0,0-2.35-1.32" transform="translate(-18.69 -12.03)"/>
  <path class="cls-1" d="M35.19,111.39l1,1,.23-.12-4.1-7.49L29.38,106l.08.28,2,.32a2.29,2.29,0,0,1,1.76,1.15l1,1.59-3.48,1.91-.25-.46c-.42-.76-.31-1.19.34-2l.33-.38-.15-.28-3.58,2,.15.28.52-.08c1-.15,1.43,0,1.85.77l.24.46-3.52,1.92L26,112.24A2.12,2.12,0,0,1,26,110l.9-1.84-.2-.21-2.77,1.75,3.95,7.22.22-.13-.31-1.33Z" transform="translate(-18.69 -12.03)"/>
  <polygon class="cls-1" points="12.18 90.25 12.43 90.18 11.63 87.06 11.38 87.12 11.17 88.5 4.75 90.14 4.72 90.04 9.28 83.75 10.48 82.17 10.27 81.34 1.59 83.56 0.75 82.44 0.49 82.51 1.29 85.64 1.54 85.57 1.75 84.19 7.09 82.83 7.11 82.93 3.46 87.87 2.27 89.44 3.04 92.48 3.29 92.42 3.48 91.14 11.33 89.13 12.18 90.25"/>
  <path class="cls-1" d="M27.75,88.68,28.12,90h.26l0-8.54-3.14-.28-.06.29,1.58,1.22a2.29,2.29,0,0,1,1,1.85l.09,1.87h-4V85.9c0-.86.3-1.2,1.24-1.57l.47-.18v-.32H21.49v.32l.5.18c.94.35,1.25.7,1.25,1.56v.52h-4l.05-1.38a2.11,2.11,0,0,1,1.09-2L22,81.87,22,81.58l-3.26.22,0,8.22H19l.36-1.32Z" transform="translate(-18.69 -12.03)"/>
  <polygon class="cls-1" points="1.34 64 11 62.49 11.13 61.95 3.25 56.2 2.97 55.19 2.72 55.13 2.03 58.04 2.28 58.09 3.09 57.24 8.57 60.83 1.82 61.65 1.74 60.4 1.49 60.34 0.38 65.02 0.64 65.08 1.34 64"/>
  <path class="cls-1" d="M30.71,68.92l.23.12,1.36-2.78-.23-.11-.86.71L29.31,65l1.18-2.43,2.77.34-.19,1.24.23.11,2.1-4.31-.23-.11-.93.9-9.62-.94-.42.86,6.51,7.17Zm-4.28-6.86v0l3.48.42-1,2.08Z" transform="translate(-18.69 -12.03)"/>
  <path class="cls-1" d="M39.71,47,39.66,47c1.1-1.57,1.11-2.75.27-3.61s-2.22-.79-4,1l-3.45,3.44.18.18,1.19-.67,5.94,6-.67,1.19.18.18L43,51c1.83-1.82,1.65-3.44.64-4.45-.78-.79-2.26-.9-3.91.5m-4.38-1.37.58-.56a1.72,1.72,0,0,1,2.61.06,1.77,1.77,0,0,1,.11,2.67l-.55.59Zm6.86,5.41a5.12,5.12,0,0,1-.81.66l-3-3,.48-.47a2,2,0,0,1,3,0c1,1,1.1,2,.3,2.76" transform="translate(-18.69 -12.03)"/>
  <path class="cls-1" d="M50.4,34.7l.69-1L51,33.48l-2.45,1.46.13.23,1.2-.14,2.87,4.79a2.3,2.3,0,0,1-.73,3.5,2.16,2.16,0,0,1-3.34-.86l-3-5,.94-1-.14-.22-4.19,2.52.13.22,1.31-.36,2.87,4.79c1.3,2.16,3.21,2.37,5.41,1.05,1.86-1.12,2.54-2.94,1.4-4.82Z" transform="translate(-18.69 -12.03)"/>
  <path class="cls-1" d="M61.46,40.12A3.29,3.29,0,0,0,63.75,36,2.8,2.8,0,0,0,61.2,34.1C60.59,34,59.92,34,59.34,34c-1.18-.13-1.59-.54-1.82-1.22a1.28,1.28,0,0,1,.92-1.69c.91-.29,2.07.29,3.34,1.57l.34-.16-1.19-2.82-.29.09-.38.67a3.73,3.73,0,0,0-2,.11,3.14,3.14,0,0,0-2.09,3.83,2.87,2.87,0,0,0,2.41,1.91c.52.07,1.13.08,1.65.11,1.5.12,2,.41,2.22,1.24a1.46,1.46,0,0,1-1.06,1.93c-1,.31-2.38,0-3.91-1.79l-.36.15,1.24,3.18.29-.09.37-.68a5.11,5.11,0,0,0,2.45-.19" transform="translate(-18.69 -12.03)"/>
  <polygon class="cls-1" points="52.09 25.21 50.97 16.86 52.22 16.33 52.18 16.07 47.32 16.73 47.36 16.98 48.72 17.17 49.84 25.51 48.58 26.05 48.61 26.3 53.47 25.65 53.43 25.39 52.09 25.21"/>
  <polygon class="cls-1" points="67.09 16.43 63.87 16.2 63.85 16.45 65.09 17.09 64.68 22.58 64.57 22.57 61.06 17.53 59.95 15.9 56.82 15.66 56.8 15.92 57.95 16.51 57.35 24.59 56.02 25.04 56.01 25.3 59.22 25.54 59.25 25.28 58 24.64 58.5 18.03 58.6 18.04 63.1 24.36 64.23 26 65.08 26.06 65.74 17.14 67.07 16.69 67.09 16.43"/>
  <path class="cls-1" d="M90.14,29.7l1.14.77-2.69,8-1.37-.08-.08.25,8.09,2.72,1.28-2.88-.25-.15-1.67,1.1a2.26,2.26,0,0,1-2.07.36l-1.8-.51L92,35.49l.49.17c.82.28,1,.67,1.08,1.68l0,.5.3.1,1.31-3.86-.3-.11-.34.42c-.63.78-1.06,1-1.88.68l-.48-.17,1.28-3.81,1.29.5a2.09,2.09,0,0,1,1.53,1.67l.59,2,.3,0L98,32.08l-7.79-2.62Z" transform="translate(-18.69 -12.03)"/>
  <path class="cls-1" d="M106.68,40l.35.16,1.35-2.74-.25-.16-.76.15A3.6,3.6,0,0,0,106,36a3.13,3.13,0,0,0-4.26.92,2.85,2.85,0,0,0,.13,3.07c.29.44.67.9,1,1.32.89,1.22,1,1.74.51,2.5a1.47,1.47,0,0,1-2.15.45c-.86-.52-1.51-1.84-1.19-4.13l-.36-.18L98,43l.26.15.76-.16a5.09,5.09,0,0,0,1.74,1.72,3.29,3.29,0,0,0,4.63-1,2.77,2.77,0,0,0-.24-3.14c-.34-.53-.78-1-1.11-1.51-.67-1-.64-1.55-.27-2.17a1.26,1.26,0,0,1,1.87-.4c.83.49,1.15,1.75,1,3.54" transform="translate(-18.69 -12.03)"/>
  <path class="cls-1" d="M113.2,50.41a2.76,2.76,0,0,0,.39-3.12c-.22-.58-.56-1.16-.78-1.7-.47-1.09-.32-1.65.17-2.18a1.26,1.26,0,0,1,1.92,0c.7.65.76,2,.26,3.67l.31.23,1.88-2.42-.22-.21h-.78A3.61,3.61,0,0,0,115.28,43a3.14,3.14,0,0,0-4.36,0,2.86,2.86,0,0,0-.49,3c.19.49.48,1,.71,1.5.63,1.37.6,1.89,0,2.54a1.46,1.46,0,0,1-2.2,0c-.74-.68-1.12-2.1-.34-4.28l-.32-.24-2.17,2.64.23.2h.77a5.05,5.05,0,0,0,1.36,2,3.28,3.28,0,0,0,4.73,0" transform="translate(-18.69 -12.03)"/>
  <path class="cls-1" d="M116,59.12l.74.22a5.07,5.07,0,0,0,.68,2.35A3.3,3.3,0,0,0,122,63.08a2.78,2.78,0,0,0,1.31-2.87c0-.63-.19-1.27-.25-1.86-.12-1.17.2-1.67.81-2a1.26,1.26,0,0,1,1.84.55c.48.83.15,2.08-.84,3.58l.23.31L127.58,59l-.15-.26-.73-.24a3.65,3.65,0,0,0-.53-1.94A3.13,3.13,0,0,0,122,55.32a2.84,2.84,0,0,0-1.37,2.75c0,.52.15,1.12.23,1.64.19,1.5,0,2-.76,2.43a1.46,1.46,0,0,1-2.1-.64c-.5-.87-.44-2.34.94-4.19l-.22-.33-2.86,1.88Z" transform="translate(-18.69 -12.03)"/>
  <path class="cls-1" d="M125.06,65.61c-2.91.9-4.13,3.44-3.2,6.44A7.89,7.89,0,0,0,123.4,75l2.5-.44V74.3l-2.83-1a4.41,4.41,0,0,1-.45-1c-.58-1.87.73-3.52,3.44-4.36,3-.93,4.5-.07,4.88,1.18s-.43,2.66-2,3.92l.14.35,3.44-1.28-.06-.21-.65-.34a5.68,5.68,0,0,0-.23-2.35,5.17,5.17,0,0,0-6.51-3.58" transform="translate(-18.69 -12.03)"/>
  <polygon class="cls-1" points="114.93 71.56 114.68 71.57 114.38 72.71 110.69 72.92 110.48 69.04 114.16 68.83 114.58 69.93 114.84 69.92 114.58 65.21 114.32 65.22 114.03 66.56 105.63 67.03 105.19 65.73 104.93 65.74 105.19 70.46 105.45 70.44 105.75 69.3 109.8 69.08 110.01 72.95 105.97 73.18 105.54 72.08 105.28 72.09 105.55 76.8 105.8 76.79 106.09 75.45 114.5 74.98 114.94 76.28 115.19 76.27 114.93 71.56"/>
  <path class="cls-1" d="M128.59,92.32c-2.68-.61-5.28.38-6,3.58a4.76,4.76,0,0,0,3.85,5.92c2.66.61,5.26-.36,6-3.58a4.77,4.77,0,0,0-3.84-5.92M132,98c-.34,1.48-2.05,2.1-5,1.43s-4.26-1.86-4-3.22,1.66-2.19,5-1.43,4.26,1.86,4,3.22" transform="translate(-18.69 -12.03)"/>
  <path class="cls-1" d="M125.07,105.51c-2.44-1.27-5.2-1-6.73,1.92a4.76,4.76,0,0,0,2.19,6.71c2.42,1.27,5.18,1,6.72-1.92a4.77,4.77,0,0,0-2.18-6.71m1.82,6.33c-.7,1.34-2.51,1.51-5.2.09s-3.64-2.89-3-4.12,2.17-1.69,5.21-.09,3.64,2.89,3,4.12" transform="translate(-18.69 -12.03)"/>
  <path class="cls-1" d="M120.69,120.85l-6.31-5.58L115,114l-.19-.17-5.3,6,2.24,2.44.21-.16-.44-2.1A2.33,2.33,0,0,1,112,118l.86-1,6.37,5.63-.6,1.23.2.17,3.25-3.68-.2-.17Z" transform="translate(-18.69 -12.03)"/>
  <path class="cls-1" d="M50.63,129.63a2.07,2.07,0,1,0,2.09,2.05,2.07,2.07,0,0,0-2.09-2.05" transform="translate(-18.69 -12.03)"/>
  <path class="cls-1" d="M103.78,129.06a2.08,2.08,0,0,0,0,4.15,2.08,2.08,0,0,0,0-4.15" transform="translate(-18.69 -12.03)"/>
  <path class="cls-1" d="M62.87,131.54c.28.12.59.23.93.34l1.19.34c.45.12.85.22,1.19.29s.68.13,1,.17l0,.21c0,.07,0,.13,0,.19s-.07.17-.12.19a.28.28,0,0,1-.15,0,1.76,1.76,0,0,0-.86.05.56.56,0,0,0-.3.39l-1.85,6.83a.5.5,0,0,0,.09.51,2.83,2.83,0,0,0,.68.47.27.27,0,0,1,.11.1.25.25,0,0,1,0,.21,1.86,1.86,0,0,1-.14.37l-.95-.33c-.34-.11-.73-.23-1.18-.35a11.54,11.54,0,0,0-1.19-.28l-1-.18a.7.7,0,0,1,0-.2,1.29,1.29,0,0,1,.05-.21.26.26,0,0,1,.26-.22,2.38,2.38,0,0,0,.83-.05.51.51,0,0,0,.33-.39l1.86-6.83a.53.53,0,0,0-.11-.5,2.19,2.19,0,0,0-.68-.45.43.43,0,0,1-.12-.11.37.37,0,0,1,0-.23s0-.11.05-.18a.66.66,0,0,1,.09-.19" transform="translate(-18.69 -12.03)"/>
  <path class="cls-1" d="M73.37,139a2.63,2.63,0,0,1-1.81.36,3.4,3.4,0,0,1-1-.3,2.13,2.13,0,0,1-.79-.63,2.53,2.53,0,0,1-.45-1,3.84,3.84,0,0,1,0-1.37,3.64,3.64,0,0,1,.39-1.18,3.53,3.53,0,0,1,.8-1,3.36,3.36,0,0,1,1.16-.6,3.24,3.24,0,0,1,1.47-.09,3.77,3.77,0,0,1,1.65.55,2.79,2.79,0,0,1,.93,1A3.2,3.2,0,0,1,76,136a5.38,5.38,0,0,1,0,1.33A6.77,6.77,0,0,1,74.29,141a8.13,8.13,0,0,1-1.85,1.48,8.71,8.71,0,0,1-2.57,1,.89.89,0,0,1-.12-.45.35.35,0,0,1,.18-.22,12.15,12.15,0,0,0,1.31-.83,6.18,6.18,0,0,0,.92-.81,4.36,4.36,0,0,0,.66-.93,10.35,10.35,0,0,0,.55-1.19m-1-.54a1.2,1.2,0,0,0,.7-.07,1,1,0,0,0,.44-.37,1.87,1.87,0,0,0,.25-.59c.06-.24.1-.48.14-.74.22-1.69-.07-2.59-.89-2.7a1.13,1.13,0,0,0-1,.4,3.46,3.46,0,0,0-.59,1.76,3.11,3.11,0,0,0,.11,1.7,1.05,1.05,0,0,0,.88.61" transform="translate(-18.69 -12.03)"/>
  <path class="cls-1" d="M82.38,138.76a2.61,2.61,0,0,1-1.7.71,3.21,3.21,0,0,1-1.08-.09,2.14,2.14,0,0,1-.9-.46,2.47,2.47,0,0,1-.63-.87,3.84,3.84,0,0,1-.3-1.34,3.2,3.2,0,0,1,.15-1.23,3.55,3.55,0,0,1,.59-1.1,3.37,3.37,0,0,1,2.44-1.2,3.81,3.81,0,0,1,1.73.21,2.89,2.89,0,0,1,1.1.78,3.14,3.14,0,0,1,.61,1.14,5.84,5.84,0,0,1,.24,1.3,6.81,6.81,0,0,1-.16,1.93,6.54,6.54,0,0,1-.8,2,8,8,0,0,1-1.52,1.82,9.15,9.15,0,0,1-2.32,1.48.78.78,0,0,1-.2-.42.31.31,0,0,1,.12-.25,15.36,15.36,0,0,0,1.13-1.08,7.58,7.58,0,0,0,.74-1,4.71,4.71,0,0,0,.46-1.05,8.82,8.82,0,0,0,.3-1.27m-1.12-.32a1.27,1.27,0,0,0,.67-.21,1,1,0,0,0,.36-.45,2,2,0,0,0,.12-.63,6.31,6.31,0,0,0,0-.75c-.11-1.7-.58-2.53-1.4-2.47a1.11,1.11,0,0,0-.94.59,3.54,3.54,0,0,0-.23,1.84,3.22,3.22,0,0,0,.44,1.65,1.11,1.11,0,0,0,1,.43" transform="translate(-18.69 -12.03)"/>
  <path class="cls-1" d="M90.75,132c.1.37,0,.61-.34.7l-3,.9.37,2.14a4.65,4.65,0,0,1,1.46-.71,2.9,2.9,0,0,1,1-.14,2.45,2.45,0,0,1,.94.23,2.37,2.37,0,0,1,.75.6,2.52,2.52,0,0,1,.49.95,3.2,3.2,0,0,1-.59,2.88,12.6,12.6,0,0,1-3.44,3.06.55.55,0,0,1-.17-.17,1.44,1.44,0,0,1-.11-.19.23.23,0,0,1,.09-.23,9.23,9.23,0,0,0,1.4-1.43,5,5,0,0,0,.72-1.22,3,3,0,0,0,.21-1,3.31,3.31,0,0,0-.13-.87,1.61,1.61,0,0,0-.73-1,1.58,1.58,0,0,0-1.24-.07,4.12,4.12,0,0,0-.63.25,6.42,6.42,0,0,0-.69.39l-.93-4.53,4.35-1.29Z" transform="translate(-18.69 -12.03)"/>
  <path class="cls-2" d="M188.76,140.8h-.38c-3.14-.05-3.89-.85-4.75-2.5-.57-1.13-1.13-2.58-1.61-3.77-.38-.9-.65-1.22-1.48-1.22h-.87l-.74,4c-.38,2.09-.13,2.27,1.95,2.49l-.19.84h-7.51l.17-.84c1.91-.18,2.29-.38,2.67-2.46L178,127c.41-2.07.13-2.19-1.9-2.34l.21-.86H183c3.47,0,5.43,1.47,5.43,4.11s-1.95,4.13-4.07,4.79c.46,1.22,1,2.41,1.44,3.39,1.51,3.14,2.11,3.61,3.2,3.95Zm-8-8.5c2.8,0,4.5-1.49,4.5-4.28,0-1.74-.9-3.22-2.72-3.22-.85,0-1.24.09-1.48,1.37l-1.18,6.13Z" transform="translate(-18.69 -12.03)"/>
  <path class="cls-2" d="M193.47,140.91c-1.46,0-3.14-.81-3.14-3.9a8.54,8.54,0,0,1,3-6.64,7.14,7.14,0,0,1,3.91-1.52c1.74,0,2.59,1,2.59,2.21,0,2.67-3.89,3.76-6.56,4.26,0,.27-.06.82-.06,1,0,1.4.42,2.68,1.89,2.68a5.63,5.63,0,0,0,3.81-2l.4.76c-2,2.35-4.12,3.17-5.85,3.17m-.09-6.52c3.06-.66,3.91-1.78,3.91-3.09,0-.86-.46-1.27-1.14-1.27s-2.19.72-2.77,4.36" transform="translate(-18.69 -12.03)"/>
  <path class="cls-2" d="M213.07,138.09c-1.35,1.77-3.14,2.82-4.12,2.82-.8,0-1.2-.69-.73-3.1l.24-1.21a13.7,13.7,0,0,1-2.9,3.15,4.24,4.24,0,0,1-2.58,1.16c-1,0-1.84-1.06-1.84-3.16A9.49,9.49,0,0,1,204,131a8.18,8.18,0,0,1,5.23-2.11,23.44,23.44,0,0,1,3.4.46c-.5,1.88-1.37,5.83-1.78,8.25-.11.67-.07,1,.13,1s.87-.37,1.69-1.21Zm-5.2-2.11a8.16,8.16,0,0,0,1.23-2.67c.24-1,.52-2.22.62-2.89A4.46,4.46,0,0,0,208,130c-2.61,0-3.87,4.17-3.83,7.13,0,1,.28,1.55.7,1.55.65,0,1.65-.77,3.05-2.74" transform="translate(-18.69 -12.03)"/>
  <path class="cls-2" d="M220.08,138.15c-1.51,1.88-3.3,2.76-4.22,2.76s-1.25-.53-.75-3c.8-3.82,1.81-8.67,2.6-12.57.22-1.1.09-1.2-.84-1.3-.25,0-.66-.08-.82-.08l.21-.77a21.27,21.27,0,0,0,3.62-.7,2.64,2.64,0,0,1,.86-.2c.29,0,.3.26.17.88-1.06,4.73-2.34,11-3.06,14.47-.14.68-.13.94.08.94a3.73,3.73,0,0,0,1.72-1.22Z" transform="translate(-18.69 -12.03)"/>
  <path class="cls-2" d="M236.34,123.79c3.33,0,5.25,1.33,5.25,3.61,0,2.44-2.1,3.74-4.37,4.18,2.08.45,4,1.73,4,3.93,0,3.27-3.12,5.09-7.33,5.09h-7.39l.17-.84c2-.16,2.28-.41,2.68-2.41l2-10.32c.38-2,.14-2.22-2-2.38l.21-.86Zm-4.08,13.45c-.38,2,.46,2.36,1.94,2.36a3.92,3.92,0,0,0,3.8-4.21c0-2.4-1.65-3.22-3.83-3.22h-.94Zm2.2-6.11c2.91,0,4.12-1.66,4.12-3.69a2.39,2.39,0,0,0-2.61-2.63c-1.05,0-1.31.08-1.56,1.44l-.95,4.88Z" transform="translate(-18.69 -12.03)"/>
  <path class="cls-2" d="M255.39,138.13c-1.47,1.93-3.16,2.77-4.16,2.77-.84,0-1.15-.77-.73-2.8.13-.66.23-1.1.34-1.6a17.84,17.84,0,0,1-3.09,3.28,4.56,4.56,0,0,1-2.57,1.12c-1,0-2-.59-1.24-3.74.37-1.57.8-3.28,1.24-5.18.18-.69.17-.94-.06-.94a4.53,4.53,0,0,0-1.63,1.14l-.38-.76c1.45-1.57,3.3-2.57,4.23-2.57s1.06.75.52,3c-.39,1.59-.84,3.27-1.21,5-.33,1.37-.15,1.83.28,1.83.79,0,2-1.16,3.08-2.59a9.68,9.68,0,0,0,1.6-3.41c.21-.8.45-1.93.7-3.19l2.52-.71h.34c-.69,2.74-1.62,6.53-2,8.81-.09.65-.06.93.14.93s.76-.25,1.65-1.19Z" transform="translate(-18.69 -12.03)"/>
  <path class="cls-2" d="M265,130.42a1.71,1.71,0,0,1-.94,1.42c-.3.14-.47.11-.78-.19-.77-.84-1.4-1.32-2.07-1.32a1.14,1.14,0,0,0-1.18,1.21c0,.73.81,1.3,1.75,2,1.52,1.13,2.48,1.84,2.48,3.16,0,2.27-3.24,4.2-5.15,4.2-1.36,0-2.74-.89-2.77-2a1.86,1.86,0,0,1,1.18-1.55c.21-.06.35,0,.57.28a3.85,3.85,0,0,0,2.66,1.75,1.26,1.26,0,0,0,1.32-1.25c0-.57-.25-1.09-1.53-2.07s-2.53-1.71-2.52-3.23a3.49,3.49,0,0,1,1.55-2.74,5.42,5.42,0,0,1,3.16-1.27c1.28,0,2.27.73,2.27,1.57" transform="translate(-18.69 -12.03)"/>
  <path class="cls-2" d="M271.82,138.17c-1.51,1.88-3.27,2.74-4.23,2.74-.79,0-1.2-.74-.75-2.64s1.1-4.36,1.52-6.22c.16-.65.13-.89-.07-.89a3.83,3.83,0,0,0-1.53,1l-.37-.77c1.56-1.55,3.37-2.5,4.28-2.5s.94.83.41,3.06c-.43,1.7-1,4.06-1.43,5.74-.18.67-.18,1,0,1a3.83,3.83,0,0,0,1.74-1.25Zm.54-13.15a1.77,1.77,0,0,1-1.72,1.83,1.36,1.36,0,0,1-1.43-1.45,1.83,1.83,0,0,1,1.82-1.82,1.3,1.3,0,0,1,1.33,1.44" transform="translate(-18.69 -12.03)"/>
  <path class="cls-2" d="M286,138.12c-1.54,2-3.29,2.79-4.19,2.79s-1.24-.59-.75-2.91c.36-1.68.85-3.62,1.24-5.23.35-1.41.18-1.85-.28-1.85-.76,0-2.45,1.4-3.82,3.63a7.71,7.71,0,0,0-.91,2.35c-.26,1.07-.56,2.37-.79,3.46a16.23,16.23,0,0,0-2.57.55l-.2-.21c.66-2.72,1.37-5.64,2-8.6.18-.78.11-1-.1-1a4.05,4.05,0,0,0-1.56,1.09l-.38-.78c1.5-1.73,2.94-2.55,3.85-2.55s1.22,1,.66,3.39l-.26,1.09c1.75-2.44,4.19-4.48,6-4.48.94,0,1.79.53,1,4-.34,1.4-.81,3.39-1.13,4.8-.14.69-.14,1,.06,1s.91-.35,1.74-1.26Z" transform="translate(-18.69 -12.03)"/>
  <path class="cls-2" d="M290.92,140.91c-1.46,0-3.14-.81-3.14-3.9a8.54,8.54,0,0,1,3-6.64,7.11,7.11,0,0,1,3.91-1.52c1.74,0,2.59,1,2.59,2.21,0,2.67-3.89,3.76-6.57,4.26,0,.27-.05.82-.05,1,0,1.4.42,2.68,1.88,2.68a5.65,5.65,0,0,0,3.82-2l.4.76c-2,2.35-4.12,3.17-5.85,3.17m-.09-6.52c3.06-.66,3.9-1.78,3.91-3.09,0-.86-.46-1.27-1.14-1.27s-2.19.72-2.77,4.36" transform="translate(-18.69 -12.03)"/>
  <path class="cls-2" d="M306.47,130.42a1.71,1.71,0,0,1-.94,1.42c-.3.14-.47.11-.78-.19-.76-.84-1.39-1.32-2.07-1.32a1.14,1.14,0,0,0-1.18,1.21c0,.73.81,1.3,1.76,2,1.51,1.13,2.47,1.84,2.47,3.16,0,2.27-3.24,4.2-5.15,4.2-1.36,0-2.74-.89-2.77-2a1.86,1.86,0,0,1,1.18-1.55c.21-.06.35,0,.57.28a3.86,3.86,0,0,0,2.67,1.75,1.26,1.26,0,0,0,1.32-1.25c0-.57-.25-1.09-1.54-2.07s-2.53-1.71-2.52-3.23a3.49,3.49,0,0,1,1.55-2.74,5.47,5.47,0,0,1,3.17-1.27c1.27,0,2.26.73,2.26,1.57" transform="translate(-18.69 -12.03)"/>
  <path class="cls-2" d="M315.62,130.42a1.7,1.7,0,0,1-.93,1.42c-.3.14-.47.11-.78-.19-.77-.84-1.4-1.32-2.08-1.32a1.13,1.13,0,0,0-1.17,1.21c0,.73.81,1.3,1.75,2,1.52,1.13,2.48,1.84,2.48,3.16,0,2.27-3.24,4.2-5.15,4.2-1.36,0-2.74-.89-2.77-2a1.86,1.86,0,0,1,1.18-1.55c.21-.06.35,0,.57.28a3.85,3.85,0,0,0,2.66,1.75,1.26,1.26,0,0,0,1.32-1.25c0-.57-.25-1.09-1.53-2.07s-2.53-1.71-2.52-3.23a3.49,3.49,0,0,1,1.55-2.74,5.42,5.42,0,0,1,3.16-1.27c1.28,0,2.26.73,2.26,1.57" transform="translate(-18.69 -12.03)"/>
  <path class="cls-2" d="M318.46,140.91a1.64,1.64,0,0,1-1.65-1.76,2,2,0,0,1,2-2.07,1.65,1.65,0,0,1,1.67,1.8,2,2,0,0,1-2,2" transform="translate(-18.69 -12.03)"/>
  <path class="cls-2" d="M343,140.8h-.38c-3.13-.05-3.88-.85-4.75-2.5-.57-1.13-1.13-2.58-1.61-3.77-.37-.9-.65-1.22-1.48-1.22H334l-.73,4c-.38,2.09-.14,2.27,1.94,2.49l-.19.84h-7.51l.17-.84c1.91-.18,2.3-.38,2.68-2.46l2-10.31c.41-2.07.13-2.19-1.9-2.34l.21-.86h6.68c3.47,0,5.43,1.47,5.43,4.11s-1.95,4.13-4.07,4.79c.47,1.22,1,2.41,1.44,3.39,1.51,3.14,2.11,3.61,3.2,3.95Zm-8-8.5c2.81,0,4.5-1.49,4.5-4.28,0-1.74-.9-3.22-2.72-3.22-.84,0-1.24.09-1.48,1.37l-1.18,6.13Z" transform="translate(-18.69 -12.03)"/>
  <path class="cls-2" d="M347.75,140.91c-1.46,0-3.14-.81-3.14-3.9a8.54,8.54,0,0,1,3-6.64,7.14,7.14,0,0,1,3.91-1.52c1.75,0,2.59,1,2.59,2.21,0,2.67-3.89,3.76-6.56,4.26,0,.27-.06.82-.06,1,0,1.4.42,2.68,1.89,2.68a5.63,5.63,0,0,0,3.81-2l.4.76a7.77,7.77,0,0,1-5.85,3.17m-.09-6.52c3.06-.66,3.91-1.78,3.92-3.09,0-.86-.47-1.27-1.15-1.27s-2.19.72-2.77,4.36" transform="translate(-18.69 -12.03)"/>
  <path class="cls-2" d="M363.3,130.42a1.71,1.71,0,0,1-.94,1.42c-.3.14-.47.11-.78-.19-.76-.84-1.39-1.32-2.07-1.32a1.15,1.15,0,0,0-1.18,1.21c0,.73.81,1.3,1.76,2,1.52,1.13,2.48,1.84,2.48,3.16,0,2.27-3.25,4.2-5.16,4.2-1.36,0-2.73-.89-2.77-2a1.88,1.88,0,0,1,1.18-1.55c.22-.06.35,0,.58.28a3.83,3.83,0,0,0,2.66,1.75,1.26,1.26,0,0,0,1.32-1.25c0-.57-.25-1.09-1.53-2.07s-2.53-1.71-2.52-3.23a3.5,3.5,0,0,1,1.54-2.74,5.47,5.47,0,0,1,3.17-1.27c1.27,0,2.26.73,2.26,1.57" transform="translate(-18.69 -12.03)"/>
  <path class="cls-2" d="M369.88,129.13a9.27,9.27,0,0,1,2.36-.28c2.76,0,3.85,1.34,3.85,3.66a8.29,8.29,0,0,1-2.23,5.42,10.18,10.18,0,0,1-5,3,4,4,0,0,1-1.42-.24l-.62,3.28c-.27,1.31-.18,1.55,1.17,1.69l.71.08-.16.82-6.8.31L362,146c1.72-.28,1.87-.45,2.24-2.11.95-4.36,1.8-8.67,2.66-12.88a12.87,12.87,0,0,0-2,.89l-.21-.83a17.48,17.48,0,0,1,2.51-1.28l.26-1.1a10.26,10.26,0,0,1,2.69-1.79l.27.21Zm-1.95,9.74a1.77,1.77,0,0,0,1.38.82c1.58,0,3.8-3.52,3.81-6.81,0-2.18-1.06-2.69-2.37-2.69a4.23,4.23,0,0,0-1.13.16c-.51,2.54-1.2,6-1.69,8.52" transform="translate(-18.69 -12.03)"/>
  <path class="cls-2" d="M388.69,133a8,8,0,0,1-3.7,6.88,6.7,6.7,0,0,1-3.4,1c-2.88,0-3.77-2.2-3.77-4.17a7.76,7.76,0,0,1,4.55-7.31,7.19,7.19,0,0,1,2.62-.58c2.44,0,3.7,1.61,3.7,4.15m-7.9,3.74c0,2,.66,3,1.8,3,2,0,3.16-3.8,3.16-6.85,0-2.06-.73-2.95-1.77-2.95-2.38,0-3.19,4.61-3.19,6.77" transform="translate(-18.69 -12.03)"/>
  <path class="cls-2" d="M402.93,138.12c-1.54,2-3.29,2.79-4.19,2.79s-1.24-.59-.75-2.91c.36-1.68.85-3.62,1.24-5.23.35-1.41.18-1.85-.29-1.85-.75,0-2.44,1.4-3.81,3.63a7.23,7.23,0,0,0-.91,2.35c-.26,1.07-.56,2.37-.79,3.46a16.23,16.23,0,0,0-2.57.55l-.2-.21c.65-2.72,1.37-5.64,2-8.6.18-.78.11-1-.1-1a4.05,4.05,0,0,0-1.56,1.09l-.38-.78c1.49-1.73,2.94-2.55,3.84-2.55s1.23,1,.67,3.39l-.26,1.09c1.75-2.44,4.19-4.48,6-4.48.94,0,1.79.53,1,4-.34,1.4-.81,3.39-1.13,4.8-.14.69-.14,1,.06,1s.91-.35,1.74-1.26Z" transform="translate(-18.69 -12.03)"/>
  <path class="cls-2" d="M412.66,130.42a1.71,1.71,0,0,1-.94,1.42c-.3.14-.47.11-.78-.19-.76-.84-1.39-1.32-2.07-1.32a1.14,1.14,0,0,0-1.18,1.21c0,.73.81,1.3,1.76,2,1.52,1.13,2.47,1.84,2.47,3.16,0,2.27-3.24,4.2-5.15,4.2-1.36,0-2.73-.89-2.77-2a1.88,1.88,0,0,1,1.18-1.55c.21-.06.35,0,.57.28a3.86,3.86,0,0,0,2.67,1.75,1.26,1.26,0,0,0,1.32-1.25c0-.57-.25-1.09-1.54-2.07s-2.52-1.71-2.52-3.23a3.52,3.52,0,0,1,1.55-2.74,5.47,5.47,0,0,1,3.17-1.27c1.27,0,2.26.73,2.26,1.57" transform="translate(-18.69 -12.03)"/>
  <path class="cls-2" d="M419.46,138.17c-1.52,1.88-3.28,2.74-4.24,2.74-.79,0-1.19-.74-.75-2.64s1.1-4.36,1.53-6.22c.15-.65.12-.89-.08-.89a3.75,3.75,0,0,0-1.52,1l-.37-.77c1.55-1.55,3.36-2.5,4.27-2.5s.94.83.41,3.06c-.43,1.7-1,4.06-1.43,5.74-.18.67-.18,1,0,1A3.83,3.83,0,0,0,419,137.4ZM420,125a1.78,1.78,0,0,1-1.73,1.83,1.35,1.35,0,0,1-1.42-1.45,1.83,1.83,0,0,1,1.82-1.82A1.3,1.3,0,0,1,420,125" transform="translate(-18.69 -12.03)"/>
  <path class="cls-2" d="M422.75,123.21a27.17,27.17,0,0,0,3.61-.7,4.69,4.69,0,0,1,.89-.2c.29,0,.31.29.2.82-.74,3-1.43,6.14-2.14,9.23,1.38-1.8,3.67-3.51,5.39-3.51s2,1.71,2,3.1a9.36,9.36,0,0,1-4,7.51,7.78,7.78,0,0,1-4.11,1.45,2.87,2.87,0,0,1-2.16-.76c-.68-.69-.94-1.72-.44-4.2.64-3.34,1.41-6.74,2.21-10.59.22-1.12.08-1.2-.82-1.28-.26,0-.65-.07-.84-.07Zm7.06,9.18c0-1-.3-1.64-.92-1.64s-1.74.55-3.11,2.35a7.41,7.41,0,0,0-1.24,3.37c-.46,2.44.35,3.22,1.35,3.22,2.08,0,3.9-4.08,3.92-7.3" transform="translate(-18.69 -12.03)"/>
  <path class="cls-2" d="M439.89,138.15c-1.51,1.88-3.3,2.76-4.22,2.76s-1.25-.53-.75-3c.79-3.82,1.8-8.67,2.6-12.57.22-1.1.09-1.2-.84-1.3-.25,0-.67-.08-.82-.08l.2-.77a21.22,21.22,0,0,0,3.63-.7,2.64,2.64,0,0,1,.86-.2c.28,0,.3.26.17.88-1.06,4.73-2.35,11-3.07,14.47-.13.68-.12.94.08.94a3.63,3.63,0,0,0,1.72-1.22Z" transform="translate(-18.69 -12.03)"/>
  <path class="cls-2" d="M444.73,140.91c-1.46,0-3.14-.81-3.14-3.9a8.57,8.57,0,0,1,3-6.64,7.14,7.14,0,0,1,3.92-1.52c1.74,0,2.58,1,2.58,2.21,0,2.67-3.88,3.76-6.56,4.26,0,.27-.05.82-.05,1,0,1.4.41,2.68,1.88,2.68a5.63,5.63,0,0,0,3.81-2l.41.76c-2,2.35-4.13,3.17-5.86,3.17m-.09-6.52c3.06-.66,3.91-1.78,3.92-3.09,0-.86-.47-1.27-1.14-1.27s-2.2.72-2.78,4.36" transform="translate(-18.69 -12.03)"/>
  <path class="cls-2" d="M471.55,136.23a35.57,35.57,0,0,1-1.76,4.37H457.26l.17-.84c2-.16,2.27-.37,2.65-2.37l2-10.52c.38-1.9.13-2.05-1.94-2.22l.22-.86h7.54l-.16.86c-2.12.15-2.35.35-2.69,2.24l-2,10.22c-.36,1.93-.22,2.41,1.36,2.41h1.4a3.56,3.56,0,0,0,2.81-.88,11.86,11.86,0,0,0,2-2.74Z" transform="translate(-18.69 -12.03)"/>
  <path class="cls-2" d="M476.24,140.91c-1.46,0-3.14-.81-3.14-3.9a8.57,8.57,0,0,1,3-6.64,7.14,7.14,0,0,1,3.91-1.52c1.75,0,2.59,1,2.59,2.21,0,2.67-3.88,3.76-6.56,4.26,0,.27-.05.82-.05,1,0,1.4.41,2.68,1.88,2.68a5.63,5.63,0,0,0,3.81-2l.4.76a7.77,7.77,0,0,1-5.85,3.17m-.09-6.52c3.06-.66,3.91-1.78,3.92-3.09,0-.86-.47-1.27-1.15-1.27s-2.19.72-2.77,4.36" transform="translate(-18.69 -12.03)"/>
  <path class="cls-2" d="M495.84,138.09c-1.35,1.77-3.14,2.82-4.11,2.82-.81,0-1.21-.69-.74-3.1l.24-1.21a13.7,13.7,0,0,1-2.9,3.15,4.24,4.24,0,0,1-2.58,1.16c-1,0-1.84-1.06-1.84-3.16a9.5,9.5,0,0,1,2.86-6.79,8.13,8.13,0,0,1,5.22-2.11,23.63,23.63,0,0,1,3.41.46c-.5,1.88-1.38,5.83-1.78,8.25-.12.67-.08,1,.13,1s.87-.37,1.68-1.21Zm-5.2-2.11a8,8,0,0,0,1.23-2.67c.24-1,.53-2.22.62-2.89a4.41,4.41,0,0,0-1.76-.38c-2.62,0-3.87,4.17-3.84,7.13,0,1,.29,1.55.7,1.55.65,0,1.66-.77,3.05-2.74" transform="translate(-18.69 -12.03)"/>
  <path class="cls-2" d="M509.75,138.1c-1.48,1.94-3.18,2.82-4.06,2.82s-1.33-.72-.8-3.19l.23-1.1c-1.44,2-3.85,4.29-5.64,4.29-1.19,0-2-1.11-2-3.3a8.4,8.4,0,0,1,7.78-8.76,3.85,3.85,0,0,1,1.42.22l.75-3.64c.21-1.17,0-1.27-1-1.37l-.82,0,.19-.8a27.9,27.9,0,0,0,3.74-.7,5.91,5.91,0,0,1,.88-.2c.29,0,.33.26.2.81-1.11,4.77-2.44,10.93-3.12,14.55-.13.66-.07,1,.12,1s.94-.42,1.77-1.32Zm-5.07-2.33a6.63,6.63,0,0,0,1.1-2.66l.52-2.26a2.91,2.91,0,0,0-2.2-.77c-2.54,0-3.69,4-3.69,6.95,0,1.16.32,1.75.87,1.75,1,0,2.32-1.38,3.4-3" transform="translate(-18.69 -12.03)"/>
  <path class="cls-2" d="M514.55,140.91c-1.46,0-3.14-.81-3.14-3.9a8.57,8.57,0,0,1,3-6.64,7.14,7.14,0,0,1,3.92-1.52c1.74,0,2.58,1,2.58,2.21,0,2.67-3.88,3.76-6.56,4.26,0,.27-.05.82-.05,1,0,1.4.41,2.68,1.88,2.68a5.63,5.63,0,0,0,3.81-2l.41.76c-2,2.35-4.13,3.17-5.86,3.17m-.09-6.52c3.06-.66,3.91-1.78,3.92-3.09,0-.86-.47-1.27-1.14-1.27s-2.2.72-2.78,4.36" transform="translate(-18.69 -12.03)"/>
  <path class="cls-2" d="M522.48,131.43c1.38-1.58,2.86-2.58,3.92-2.58s1.1,1.21.53,3.68l-.14.62c1.33-2.33,3-4.3,4.16-4.3a1.35,1.35,0,0,1,1.34,1.32,2.94,2.94,0,0,1-1.21,2c-.26.17-.47.17-.62,0-.36-.39-.69-.77-1-.77-.69,0-2,2.18-2.39,2.93a26.87,26.87,0,0,0-1.63,6,17.24,17.24,0,0,0-2.6.55l-.2-.21c.64-2.53,1.45-6,1.81-7.87.32-1.53.24-1.74,0-1.74a4.08,4.08,0,0,0-1.61,1.1Z" transform="translate(-18.69 -12.03)"/>
  <path class="cls-2" d="M540.58,130.42a1.71,1.71,0,0,1-.94,1.42c-.3.14-.47.11-.78-.19-.76-.84-1.39-1.32-2.07-1.32a1.14,1.14,0,0,0-1.18,1.21c0,.73.81,1.3,1.76,2,1.52,1.13,2.47,1.84,2.47,3.16,0,2.27-3.24,4.2-5.15,4.2-1.36,0-2.73-.89-2.77-2a1.88,1.88,0,0,1,1.18-1.55c.22-.06.35,0,.58.28a3.83,3.83,0,0,0,2.66,1.75,1.26,1.26,0,0,0,1.32-1.25c0-.57-.25-1.09-1.54-2.07s-2.52-1.71-2.51-3.23a3.5,3.5,0,0,1,1.54-2.74,5.47,5.47,0,0,1,3.17-1.27c1.27,0,2.26.73,2.26,1.57" transform="translate(-18.69 -12.03)"/>
  <path class="cls-2" d="M543.41,140.91a1.64,1.64,0,0,1-1.65-1.76,2,2,0,0,1,2-2.07,1.65,1.65,0,0,1,1.66,1.8,2,2,0,0,1-2,2" transform="translate(-18.69 -12.03)"/>
</svg>
