<svg width="1885" height="1865" viewBox="0 0 1885 1865" fill="none" xmlns="http://www.w3.org/2000/svg">
<rect width="1885" height="1865" fill="#1E1E1E"/>
<g filter="url(#filter0_d_0_1)" style="mix-blend-mode:lighten">
<path d="M934.299 213.186L285.799 731.186L441.799 818.186V1011.19L8.29883 731.186L934.299 3.1857L1851.8 731.186L1382.8 1011.19H719.799V1227.69H1294.3V1428.69H719.799V1639.19H1382.8V1853.69H505.299V818.186H934.299H1382.8L1552.8 731.186L934.299 213.186Z" fill="#84CC16"/>
<path d="M934.299 375.686L505.299 731.186H1382.8L934.299 375.686Z" fill="#84CC16"/>
<path d="M934.299 213.186L285.799 731.186L441.799 818.186V1011.19L8.29883 731.186L934.299 3.1857M934.299 213.186L1552.8 731.186L1382.8 818.186M934.299 213.186V3.1857M1382.8 818.186V1011.19M1382.8 818.186H934.299H505.299V1853.69H1382.8V1639.19H719.799V1428.69H1294.3V1227.69H719.799V1011.19H1382.8M1382.8 1011.19L1851.8 731.186M934.299 3.1857L1851.8 731.186M1851.8 731.186V1296.19M1851.8 1296.19L1828.8 1416.19M1851.8 1296.19L1839.8 1423.19M1851.8 1296.19V1428.69M1851.8 1296.19L1862.8 1424.19M1851.8 1296.19L1871.8 1419.69M1851.8 1296.19L1877.8 1417.69M505.299 731.186L934.299 375.686L1382.8 731.186H505.299Z" stroke="#84CC16" stroke-width="5"/>
</g>
<defs>
<filter id="filter0_d_0_1" x="0" y="0" width="1884.24" height="1864.19" filterUnits="userSpaceOnUse" color-interpolation-filters="sRGB">
<feFlood flood-opacity="0" result="BackgroundImageFix"/>
<feColorMatrix in="SourceAlpha" type="matrix" values="0 0 0 0 0 0 0 0 0 0 0 0 0 0 0 0 0 0 127 0" result="hardAlpha"/>
<feOffset dy="4"/>
<feGaussianBlur stdDeviation="2"/>
<feComposite in2="hardAlpha" operator="out"/>
<feColorMatrix type="matrix" values="0 0 0 0 0 0 0 0 0 0 0 0 0 0 0 0 0 0 0.25 0"/>
<feBlend mode="normal" in2="BackgroundImageFix" result="effect1_dropShadow_0_1"/>
<feBlend mode="normal" in="SourceGraphic" in2="effect1_dropShadow_0_1" result="shape"/>
</filter>
</defs>
</svg>
