<?xml version="1.0" encoding="UTF-8"?>
<svg xmlns="http://www.w3.org/2000/svg" viewBox="0 0 206 52" fill="none" role="img" aria-label="Edmission">
  <title>Edmission</title>
  <g transform="translate(0 2)">
    <rect width="48" height="48" rx="12" fill="#84CC16"/>
    <path fill="#FFFFFF" d="M9 8L39 8 39 14 16 14 16 21 34 21 34 27 16 27 16 34 39 34 39 41 9 41z"/>
  </g>
  <path fill="#FFFFFF" transform="matrix(0.01318359375 0 0 -0.01318359375 60 35.82177734375)" d="M150 0V1490H1118V1265H417V863H1066V641H417V225H1122V0Z M1790 -20Q1658 -20 1553.5 47.5Q1449 115 1389.0 244.0Q1329 373 1329 557Q1329 743 1390.5 871.5Q1452 1000 1556.5 1066.0Q1661 1132 1789 1132Q1889 1132 1952.5 1098.5Q2016 1065 2053.5 1019.0Q2091 973 2110 933H2121V1490H2381V0H2126V177H2110Q2090 137 2051.5 91.0Q2013 45 1950.0 12.5Q1887 -20 1790 -20ZM1861 194Q1946 194 2005.0 239.5Q2064 285 2095.0 367.0Q2126 449 2126 558Q2126 667 2095.5 747.5Q2065 828 2005.5 873.0Q1946 918 1861 918Q1773 918 1714.0 871.5Q1655 825 1625.0 743.5Q1595 662 1595 558Q1595 454 1625.0 371.5Q1655 289 1714.5 241.5Q1774 194 1861 194Z M2656 0V1118H2900L2910 849H2891Q2915 949 2965.5 1012.0Q3016 1075 3083.5 1105.5Q3151 1136 3225 1136Q3346 1136 3420.5 1060.0Q3495 984 3526 836H3495Q3518 936 3573.5 1002.5Q3629 1069 3705.5 1102.5Q3782 1136 3869 1136Q3970 1136 4050.0 1092.0Q4130 1048 4177.0 963.5Q4224 879 4224 754V0H3964V714Q3964 818 3907.0 866.0Q3850 914 3770 914Q3708 914 3662.0 887.0Q3616 860 3591.5 812.5Q3567 765 3567 702V0H3313V726Q3313 811 3260.0 862.5Q3207 914 3124 914Q3067 914 3019.5 888.0Q2972 862 2944.0 811.0Q2916 760 2916 685V0Z M4500 0V1118H4760V0ZM4630 1276Q4568 1276 4523.5 1318.0Q4479 1360 4479 1418Q4479 1478 4523.5 1519.5Q4568 1561 4630 1561Q4693 1561 4737.5 1519.5Q4782 1478 4782 1419Q4782 1360 4737.5 1318.0Q4693 1276 4630 1276Z M5459 -23Q5330 -23 5231.0 14.0Q5132 51 5068.5 122.0Q5005 193 4986 294L5229 340Q5252 257 5310.5 216.5Q5369 176 5464 176Q5560 176 5616.5 214.5Q5673 253 5673 310Q5673 358 5636.0 389.5Q5599 421 5522 438L5331 479Q5173 513 5095.0 591.0Q5017 669 5017 792Q5017 896 5074.0 972.0Q5131 1048 5232.5 1090.0Q5334 1132 5468 1132Q5595 1132 5686.5 1096.0Q5778 1060 5834.5 995.5Q5891 931 5913 844L5681 798Q5662 857 5612.0 897.5Q5562 938 5471 938Q5388 938 5332.5 901.5Q5277 865 5277 808Q5277 759 5314.0 727.0Q5351 695 5436 677L5626 637Q5785 603 5862.0 528.0Q5939 453 5939 335Q5939 229 5878.0 148.5Q5817 68 5708.5 22.5Q5600 -23 5459 -23Z M6584 -23Q6455 -23 6356.0 14.0Q6257 51 6193.5 122.0Q6130 193 6111 294L6354 340Q6377 257 6435.5 216.5Q6494 176 6589 176Q6685 176 6741.5 214.5Q6798 253 6798 310Q6798 358 6761.0 389.5Q6724 421 6647 438L6456 479Q6298 513 6220.0 591.0Q6142 669 6142 792Q6142 896 6199.0 972.0Q6256 1048 6357.5 1090.0Q6459 1132 6593 1132Q6720 1132 6811.5 1096.0Q6903 1060 6959.5 995.5Q7016 931 7038 844L6806 798Q6787 857 6737.0 897.5Q6687 938 6596 938Q6513 938 6457.5 901.5Q6402 865 6402 808Q6402 759 6439.0 727.0Q6476 695 6561 677L6751 637Q6910 603 6987.0 528.0Q7064 453 7064 335Q7064 229 7003.0 148.5Q6942 68 6833.5 22.5Q6725 -23 6584 -23Z M7286 0V1118H7546V0ZM7416 1276Q7354 1276 7309.5 1318.0Q7265 1360 7265 1418Q7265 1478 7309.5 1519.5Q7354 1561 7416 1561Q7479 1561 7523.5 1519.5Q7568 1478 7568 1419Q7568 1360 7523.5 1318.0Q7479 1276 7416 1276Z M8307 -23Q8144 -23 8024.0 49.5Q7904 122 7838.5 251.5Q7773 381 7773 553Q7773 727 7838.5 857.5Q7904 988 8024.0 1060.0Q8144 1132 8307 1132Q8471 1132 8591.0 1060.0Q8711 988 8776.5 857.5Q8842 727 8842 553Q8842 381 8776.5 251.5Q8711 122 8591.0 49.5Q8471 -23 8307 -23ZM8307 188Q8398 188 8458.5 237.0Q8519 286 8548.5 369.0Q8578 452 8578 554Q8578 657 8548.5 740.0Q8519 823 8458.5 872.0Q8398 921 8307 921Q8216 921 8156.5 872.0Q8097 823 8067.5 740.5Q8038 658 8038 554Q8038 452 8067.5 369.0Q8097 286 8156.5 237.0Q8216 188 8307 188Z M9329 655V0H9069V1118H9315L9319 842H9298Q9345 987 9436.0 1059.5Q9527 1132 9664 1132Q9779 1132 9865.0 1083.0Q9951 1034 9998.5 940.0Q10046 846 10046 711V0H9786V671Q9786 783 9728.0 847.0Q9670 911 9568 911Q9499 911 9445.0 881.0Q9391 851 9360.0 793.5Q9329 736 9329 655Z"/>
</svg>
