<svg width="176" height="284" viewBox="0 0 176 284" fill="none" xmlns="http://www.w3.org/2000/svg">
<rect x="0.5" y="0.5" width="175" height="283" rx="4.5" stroke="#9747FF" stroke-dasharray="10 5"/>
<rect x="20" y="20" width="123" height="68" rx="14" fill="#191A23"/>
<path d="M57.0844 61V47H58.7644V59.48H65.8444V61H57.0844ZM71.0623 61.28C70.3823 61.28 69.7623 61.16 69.2023 60.92C68.6423 60.68 68.2023 60.3333 67.8823 59.88C67.5623 59.4267 67.4023 58.8733 67.4023 58.22C67.4023 57.5533 67.5623 57.0067 67.8823 56.58C68.2023 56.14 68.6423 55.8133 69.2023 55.6C69.7623 55.3733 70.389 55.26 71.0823 55.26H74.3823V54.54C74.3823 53.8467 74.1757 53.3 73.7623 52.9C73.3623 52.5 72.7623 52.3 71.9623 52.3C71.1757 52.3 70.5623 52.4933 70.1223 52.88C69.6823 53.2533 69.3823 53.76 69.2223 54.4L67.7423 53.92C67.9023 53.3733 68.1557 52.88 68.5023 52.44C68.849 51.9867 69.309 51.6267 69.8823 51.36C70.469 51.08 71.169 50.94 71.9823 50.94C73.2357 50.94 74.209 51.2667 74.9023 51.92C75.5957 52.56 75.9423 53.4667 75.9423 54.64V59.06C75.9423 59.46 76.129 59.66 76.5023 59.66H77.4023V61H76.0223C75.5823 61 75.229 60.88 74.9623 60.64C74.6957 60.3867 74.5623 60.0533 74.5623 59.64V59.54H74.3223C74.1757 59.7933 73.9757 60.06 73.7223 60.34C73.4823 60.6067 73.149 60.8267 72.7223 61C72.2957 61.1867 71.7423 61.28 71.0623 61.28ZM71.2423 59.92C72.1757 59.92 72.929 59.6467 73.5023 59.1C74.089 58.54 74.3823 57.76 74.3823 56.76V56.54H71.1423C70.5157 56.54 69.9957 56.68 69.5823 56.96C69.1823 57.2267 68.9823 57.6333 68.9823 58.18C68.9823 58.7267 69.189 59.1533 69.6023 59.46C70.029 59.7667 70.5757 59.92 71.2423 59.92ZM84.9863 61.28C83.9729 61.28 83.1796 61.0867 82.6063 60.7C82.0463 60.3133 81.6396 59.8733 81.3863 59.38H81.1063V61H79.5663V47H81.1463V52.76H81.4263C81.5863 52.4533 81.8129 52.1667 82.1063 51.9C82.3996 51.62 82.7796 51.3933 83.2463 51.22C83.7263 51.0333 84.3063 50.94 84.9863 50.94C85.8396 50.94 86.6129 51.1467 87.3063 51.56C88.0129 51.96 88.5729 52.54 88.9863 53.3C89.3996 54.0467 89.6063 54.94 89.6063 55.98V56.24C89.6063 57.28 89.3929 58.18 88.9663 58.94C88.5529 59.7 87.9929 60.28 87.2863 60.68C86.5929 61.08 85.8263 61.28 84.9863 61.28ZM84.5663 59.88C85.5796 59.88 86.3996 59.56 87.0263 58.92C87.6663 58.2667 87.9863 57.36 87.9863 56.2V56.02C87.9863 54.86 87.6663 53.96 87.0263 53.32C86.3996 52.6667 85.5796 52.34 84.5663 52.34C83.5663 52.34 82.7396 52.6667 82.0863 53.32C81.4463 53.96 81.1263 54.86 81.1263 56.02V56.2C81.1263 57.36 81.4463 58.2667 82.0863 58.92C82.7396 59.56 83.5663 59.88 84.5663 59.88ZM96.9173 61.28C95.9307 61.28 95.064 61.0733 94.3173 60.66C93.5707 60.2333 92.9907 59.64 92.5773 58.88C92.164 58.12 91.9573 57.24 91.9573 56.24V56C91.9573 54.9867 92.164 54.1 92.5773 53.34C92.9907 52.58 93.564 51.9933 94.2973 51.58C95.0307 51.1533 95.8707 50.94 96.8173 50.94C97.7373 50.94 98.5507 51.14 99.2573 51.54C99.964 51.9267 100.517 52.4867 100.917 53.22C101.317 53.9533 101.517 54.8133 101.517 55.8V56.52H93.5373C93.5773 57.5733 93.9173 58.4 94.5573 59C95.1973 59.5867 95.9973 59.88 96.9573 59.88C97.7973 59.88 98.444 59.6867 98.8973 59.3C99.3507 58.9133 99.6973 58.4533 99.9373 57.92L101.297 58.58C101.097 58.9933 100.817 59.4067 100.457 59.82C100.111 60.2333 99.6507 60.58 99.0773 60.86C98.5173 61.14 97.7973 61.28 96.9173 61.28ZM93.5573 55.22H99.9173C99.864 54.3133 99.5507 53.6067 98.9773 53.1C98.4173 52.5933 97.6973 52.34 96.8173 52.34C95.924 52.34 95.1907 52.5933 94.6173 53.1C94.044 53.6067 93.6907 54.3133 93.5573 55.22ZM104.273 61V47H105.853V61H104.273Z" fill="white"/>
<rect x="20" y="196" width="123" height="68" rx="14" fill="#B9FF66"/>
<path d="M57.0844 237V223H58.7644V235.48H65.8444V237H57.0844ZM71.0623 237.28C70.3823 237.28 69.7623 237.16 69.2023 236.92C68.6423 236.68 68.2023 236.333 67.8823 235.88C67.5623 235.427 67.4023 234.873 67.4023 234.22C67.4023 233.553 67.5623 233.007 67.8823 232.58C68.2023 232.14 68.6423 231.813 69.2023 231.6C69.7623 231.373 70.389 231.26 71.0823 231.26H74.3823V230.54C74.3823 229.847 74.1757 229.3 73.7623 228.9C73.3623 228.5 72.7623 228.3 71.9623 228.3C71.1757 228.3 70.5623 228.493 70.1223 228.88C69.6823 229.253 69.3823 229.76 69.2223 230.4L67.7423 229.92C67.9023 229.373 68.1557 228.88 68.5023 228.44C68.849 227.987 69.309 227.627 69.8823 227.36C70.469 227.08 71.169 226.94 71.9823 226.94C73.2357 226.94 74.209 227.267 74.9023 227.92C75.5957 228.56 75.9423 229.467 75.9423 230.64V235.06C75.9423 235.46 76.129 235.66 76.5023 235.66H77.4023V237H76.0223C75.5823 237 75.229 236.88 74.9623 236.64C74.6957 236.387 74.5623 236.053 74.5623 235.64V235.54H74.3223C74.1757 235.793 73.9757 236.06 73.7223 236.34C73.4823 236.607 73.149 236.827 72.7223 237C72.2957 237.187 71.7423 237.28 71.0623 237.28ZM71.2423 235.92C72.1757 235.92 72.929 235.647 73.5023 235.1C74.089 234.54 74.3823 233.76 74.3823 232.76V232.54H71.1423C70.5157 232.54 69.9957 232.68 69.5823 232.96C69.1823 233.227 68.9823 233.633 68.9823 234.18C68.9823 234.727 69.189 235.153 69.6023 235.46C70.029 235.767 70.5757 235.92 71.2423 235.92ZM84.9863 237.28C83.9729 237.28 83.1796 237.087 82.6063 236.7C82.0463 236.313 81.6396 235.873 81.3863 235.38H81.1063V237H79.5663V223H81.1463V228.76H81.4263C81.5863 228.453 81.8129 228.167 82.1063 227.9C82.3996 227.62 82.7796 227.393 83.2463 227.22C83.7263 227.033 84.3063 226.94 84.9863 226.94C85.8396 226.94 86.6129 227.147 87.3063 227.56C88.0129 227.96 88.5729 228.54 88.9863 229.3C89.3996 230.047 89.6063 230.94 89.6063 231.98V232.24C89.6063 233.28 89.3929 234.18 88.9663 234.94C88.5529 235.7 87.9929 236.28 87.2863 236.68C86.5929 237.08 85.8263 237.28 84.9863 237.28ZM84.5663 235.88C85.5796 235.88 86.3996 235.56 87.0263 234.92C87.6663 234.267 87.9863 233.36 87.9863 232.2V232.02C87.9863 230.86 87.6663 229.96 87.0263 229.32C86.3996 228.667 85.5796 228.34 84.5663 228.34C83.5663 228.34 82.7396 228.667 82.0863 229.32C81.4463 229.96 81.1263 230.86 81.1263 232.02V232.2C81.1263 233.36 81.4463 234.267 82.0863 234.92C82.7396 235.56 83.5663 235.88 84.5663 235.88ZM96.9173 237.28C95.9307 237.28 95.064 237.073 94.3173 236.66C93.5707 236.233 92.9907 235.64 92.5773 234.88C92.164 234.12 91.9573 233.24 91.9573 232.24V232C91.9573 230.987 92.164 230.1 92.5773 229.34C92.9907 228.58 93.564 227.993 94.2973 227.58C95.0307 227.153 95.8707 226.94 96.8173 226.94C97.7373 226.94 98.5507 227.14 99.2573 227.54C99.964 227.927 100.517 228.487 100.917 229.22C101.317 229.953 101.517 230.813 101.517 231.8V232.52H93.5373C93.5773 233.573 93.9173 234.4 94.5573 235C95.1973 235.587 95.9973 235.88 96.9573 235.88C97.7973 235.88 98.444 235.687 98.8973 235.3C99.3507 234.913 99.6973 234.453 99.9373 233.92L101.297 234.58C101.097 234.993 100.817 235.407 100.457 235.82C100.111 236.233 99.6507 236.58 99.0773 236.86C98.5173 237.14 97.7973 237.28 96.9173 237.28ZM93.5573 231.22H99.9173C99.864 230.313 99.5507 229.607 98.9773 229.1C98.4173 228.593 97.6973 228.34 96.8173 228.34C95.924 228.34 95.1907 228.593 94.6173 229.1C94.044 229.607 93.6907 230.313 93.5573 231.22ZM104.273 237V223H105.853V237H104.273Z" fill="black"/>
<rect x="20.5" y="108.5" width="122" height="67" rx="13.5" stroke="#191A23"/>
<path d="M57.0844 149V135H58.7644V147.48H65.8444V149H57.0844ZM71.0623 149.28C70.3823 149.28 69.7623 149.16 69.2023 148.92C68.6423 148.68 68.2023 148.333 67.8823 147.88C67.5623 147.427 67.4023 146.873 67.4023 146.22C67.4023 145.553 67.5623 145.007 67.8823 144.58C68.2023 144.14 68.6423 143.813 69.2023 143.6C69.7623 143.373 70.389 143.26 71.0823 143.26H74.3823V142.54C74.3823 141.847 74.1757 141.3 73.7623 140.9C73.3623 140.5 72.7623 140.3 71.9623 140.3C71.1757 140.3 70.5623 140.493 70.1223 140.88C69.6823 141.253 69.3823 141.76 69.2223 142.4L67.7423 141.92C67.9023 141.373 68.1557 140.88 68.5023 140.44C68.849 139.987 69.309 139.627 69.8823 139.36C70.469 139.08 71.169 138.94 71.9823 138.94C73.2357 138.94 74.209 139.267 74.9023 139.92C75.5957 140.56 75.9423 141.467 75.9423 142.64V147.06C75.9423 147.46 76.129 147.66 76.5023 147.66H77.4023V149H76.0223C75.5823 149 75.229 148.88 74.9623 148.64C74.6957 148.387 74.5623 148.053 74.5623 147.64V147.54H74.3223C74.1757 147.793 73.9757 148.06 73.7223 148.34C73.4823 148.607 73.149 148.827 72.7223 149C72.2957 149.187 71.7423 149.28 71.0623 149.28ZM71.2423 147.92C72.1757 147.92 72.929 147.647 73.5023 147.1C74.089 146.54 74.3823 145.76 74.3823 144.76V144.54H71.1423C70.5157 144.54 69.9957 144.68 69.5823 144.96C69.1823 145.227 68.9823 145.633 68.9823 146.18C68.9823 146.727 69.189 147.153 69.6023 147.46C70.029 147.767 70.5757 147.92 71.2423 147.92ZM84.9863 149.28C83.9729 149.28 83.1796 149.087 82.6063 148.7C82.0463 148.313 81.6396 147.873 81.3863 147.38H81.1063V149H79.5663V135H81.1463V140.76H81.4263C81.5863 140.453 81.8129 140.167 82.1063 139.9C82.3996 139.62 82.7796 139.393 83.2463 139.22C83.7263 139.033 84.3063 138.94 84.9863 138.94C85.8396 138.94 86.6129 139.147 87.3063 139.56C88.0129 139.96 88.5729 140.54 88.9863 141.3C89.3996 142.047 89.6063 142.94 89.6063 143.98V144.24C89.6063 145.28 89.3929 146.18 88.9663 146.94C88.5529 147.7 87.9929 148.28 87.2863 148.68C86.5929 149.08 85.8263 149.28 84.9863 149.28ZM84.5663 147.88C85.5796 147.88 86.3996 147.56 87.0263 146.92C87.6663 146.267 87.9863 145.36 87.9863 144.2V144.02C87.9863 142.86 87.6663 141.96 87.0263 141.32C86.3996 140.667 85.5796 140.34 84.5663 140.34C83.5663 140.34 82.7396 140.667 82.0863 141.32C81.4463 141.96 81.1263 142.86 81.1263 144.02V144.2C81.1263 145.36 81.4463 146.267 82.0863 146.92C82.7396 147.56 83.5663 147.88 84.5663 147.88ZM96.9173 149.28C95.9307 149.28 95.064 149.073 94.3173 148.66C93.5707 148.233 92.9907 147.64 92.5773 146.88C92.164 146.12 91.9573 145.24 91.9573 144.24V144C91.9573 142.987 92.164 142.1 92.5773 141.34C92.9907 140.58 93.564 139.993 94.2973 139.58C95.0307 139.153 95.8707 138.94 96.8173 138.94C97.7373 138.94 98.5507 139.14 99.2573 139.54C99.964 139.927 100.517 140.487 100.917 141.22C101.317 141.953 101.517 142.813 101.517 143.8V144.52H93.5373C93.5773 145.573 93.9173 146.4 94.5573 147C95.1973 147.587 95.9973 147.88 96.9573 147.88C97.7973 147.88 98.444 147.687 98.8973 147.3C99.3507 146.913 99.6973 146.453 99.9373 145.92L101.297 146.58C101.097 146.993 100.817 147.407 100.457 147.82C100.111 148.233 99.6507 148.58 99.0773 148.86C98.5173 149.14 97.7973 149.28 96.9173 149.28ZM93.5573 143.22H99.9173C99.864 142.313 99.5507 141.607 98.9773 141.1C98.4173 140.593 97.6973 140.34 96.8173 140.34C95.924 140.34 95.1907 140.593 94.6173 141.1C94.044 141.607 93.6907 142.313 93.5573 143.22ZM104.273 149V135H105.853V149H104.273Z" fill="black"/>
</svg>
