<svg width="500" height="293" viewBox="0 0 500 293" fill="none" xmlns="http://www.w3.org/2000/svg">
<path d="M278.084 94.7297C346.523 132.48 405.256 172.478 444.889 206.62C464.708 223.694 479.731 239.285 488.804 252.385C493.342 258.936 496.374 264.84 497.786 269.976C499.197 275.11 498.977 279.433 497.078 282.876C495.178 286.32 491.64 288.811 486.545 290.356C481.447 291.902 474.835 292.486 466.874 292.143C450.954 291.456 429.752 287.067 404.738 279.411C354.717 264.101 289.555 235.759 221.116 198.008C152.677 160.258 93.9428 120.26 54.3102 86.1177C34.4911 69.0442 19.469 53.4527 10.3954 40.3532C5.85804 33.8024 2.82448 27.8977 1.41264 22.7612C0.00152684 17.6273 0.221087 13.3058 2.12046 9.86202C4.02005 6.41819 7.55857 3.92659 12.6539 2.38148C17.7517 0.835635 24.3644 0.251657 32.3257 0.595096C48.246 1.28197 69.4473 5.67103 94.4609 13.3269C144.481 28.6366 209.644 56.9791 278.084 94.7297Z" stroke="black"/>
</svg>
