<svg width="159" height="542" viewBox="0 0 159 542" fill="none" xmlns="http://www.w3.org/2000/svg">
<rect x="0.5" y="0.5" width="158" height="541" rx="4.5" stroke="#9747FF" stroke-dasharray="10 5"/>
<rect x="20" y="20" width="119" height="51" rx="7" fill="#B9FF66"/>
<path d="M29.92 59V31H34.24V55.08H47.72V59H29.92ZM57.9178 59.56C56.5045 59.56 55.2378 59.32 54.1178 58.84C53.0245 58.36 52.1445 57.6533 51.4778 56.72C50.8378 55.7867 50.5178 54.6533 50.5178 53.32C50.5178 51.96 50.8378 50.84 51.4778 49.96C52.1445 49.0533 53.0378 48.3733 54.1578 47.92C55.3045 47.4667 56.5978 47.24 58.0378 47.24H64.0378V45.96C64.0378 44.8133 63.6911 43.8933 62.9978 43.2C62.3045 42.5067 61.2378 42.16 59.7978 42.16C58.3845 42.16 57.3045 42.4933 56.5578 43.16C55.8111 43.8267 55.3178 44.6933 55.0778 45.76L51.2378 44.52C51.5578 43.4533 52.0645 42.4933 52.7578 41.64C53.4778 40.76 54.4245 40.0533 55.5978 39.52C56.7711 38.9867 58.1845 38.72 59.8378 38.72C62.3978 38.72 64.4111 39.3733 65.8778 40.68C67.3445 41.9867 68.0778 43.84 68.0778 46.24V54.36C68.0778 55.16 68.4511 55.56 69.1978 55.56H70.8778V59H67.7978C66.8645 59 66.1045 58.76 65.5178 58.28C64.9311 57.8 64.6378 57.1467 64.6378 56.32V56.2H64.0378C63.8245 56.6 63.5045 57.0667 63.0778 57.6C62.6511 58.1333 62.0245 58.6 61.1978 59C60.3711 59.3733 59.2778 59.56 57.9178 59.56ZM58.5178 56.16C60.1711 56.16 61.5045 55.6933 62.5178 54.76C63.5311 53.8 64.0378 52.4933 64.0378 50.84V50.44H58.2778C57.1845 50.44 56.3045 50.68 55.6378 51.16C54.9711 51.6133 54.6378 52.2933 54.6378 53.2C54.6378 54.1067 54.9845 54.8267 55.6778 55.36C56.3711 55.8933 57.3178 56.16 58.5178 56.16ZM86.2838 59.56C84.3638 59.56 82.8838 59.2133 81.8438 58.52C80.8304 57.8267 80.0704 57.0533 79.5638 56.2H78.9238V59H74.8838V31H79.0038V41.96H79.6438C79.9638 41.4267 80.3904 40.92 80.9238 40.44C81.4571 39.9333 82.1638 39.52 83.0438 39.2C83.9238 38.88 85.0038 38.72 86.2838 38.72C87.9371 38.72 89.4571 39.12 90.8438 39.92C92.2304 40.72 93.3371 41.88 94.1638 43.4C94.9904 44.92 95.4038 46.7333 95.4038 48.84V49.44C95.4038 51.5733 94.9771 53.4 94.1238 54.92C93.2971 56.4133 92.1904 57.56 90.8038 58.36C89.4438 59.16 87.9371 59.56 86.2838 59.56ZM85.0838 55.96C86.8704 55.96 88.3371 55.3867 89.4838 54.24C90.6571 53.0933 91.2438 51.4533 91.2438 49.32V48.96C91.2438 46.8533 90.6704 45.2267 89.5238 44.08C88.3771 42.9333 86.8971 42.36 85.0838 42.36C83.3238 42.36 81.8571 42.9333 80.6838 44.08C79.5371 45.2267 78.9638 46.8533 78.9638 48.96V49.32C78.9638 51.4533 79.5371 53.0933 80.6838 54.24C81.8571 55.3867 83.3238 55.96 85.0838 55.96ZM109.549 59.56C107.549 59.56 105.802 59.1467 104.309 58.32C102.815 57.4667 101.642 56.28 100.789 54.76C99.9621 53.2133 99.5488 51.4267 99.5488 49.4V48.92C99.5488 46.8667 99.9621 45.08 100.789 43.56C101.615 42.0133 102.762 40.8267 104.229 40C105.722 39.1467 107.442 38.72 109.389 38.72C111.282 38.72 112.935 39.1467 114.349 40C115.789 40.8267 116.909 41.9867 117.709 43.48C118.509 44.9733 118.909 46.72 118.909 48.72V50.28H103.749C103.802 52.0133 104.375 53.4 105.469 54.44C106.589 55.4533 107.975 55.96 109.629 55.96C111.175 55.96 112.335 55.6133 113.109 54.92C113.909 54.2267 114.522 53.4267 114.949 52.52L118.349 54.28C117.975 55.0267 117.429 55.8133 116.709 56.64C116.015 57.4667 115.095 58.16 113.949 58.72C112.802 59.28 111.335 59.56 109.549 59.56ZM103.789 47.12H114.709C114.602 45.6267 114.069 44.4667 113.109 43.64C112.149 42.7867 110.895 42.36 109.349 42.36C107.802 42.36 106.535 42.7867 105.549 43.64C104.589 44.4667 104.002 45.6267 103.789 47.12ZM123.868 59V31H127.988V59H123.868Z" fill="black"/>
<rect x="20" y="71" width="119" height="51" rx="7" fill="#B9FF66"/>
<path d="M29.92 110V82H34.24V106.08H47.72V110H29.92ZM57.9178 110.56C56.5045 110.56 55.2378 110.32 54.1178 109.84C53.0245 109.36 52.1445 108.653 51.4778 107.72C50.8378 106.787 50.5178 105.653 50.5178 104.32C50.5178 102.96 50.8378 101.84 51.4778 100.96C52.1445 100.053 53.0378 99.3733 54.1578 98.92C55.3045 98.4667 56.5978 98.24 58.0378 98.24H64.0378V96.96C64.0378 95.8133 63.6911 94.8933 62.9978 94.2C62.3045 93.5067 61.2378 93.16 59.7978 93.16C58.3845 93.16 57.3045 93.4933 56.5578 94.16C55.8111 94.8267 55.3178 95.6933 55.0778 96.76L51.2378 95.52C51.5578 94.4533 52.0645 93.4933 52.7578 92.64C53.4778 91.76 54.4245 91.0533 55.5978 90.52C56.7711 89.9867 58.1845 89.72 59.8378 89.72C62.3978 89.72 64.4111 90.3733 65.8778 91.68C67.3445 92.9867 68.0778 94.84 68.0778 97.24V105.36C68.0778 106.16 68.4511 106.56 69.1978 106.56H70.8778V110H67.7978C66.8645 110 66.1045 109.76 65.5178 109.28C64.9311 108.8 64.6378 108.147 64.6378 107.32V107.2H64.0378C63.8245 107.6 63.5045 108.067 63.0778 108.6C62.6511 109.133 62.0245 109.6 61.1978 110C60.3711 110.373 59.2778 110.56 57.9178 110.56ZM58.5178 107.16C60.1711 107.16 61.5045 106.693 62.5178 105.76C63.5311 104.8 64.0378 103.493 64.0378 101.84V101.44H58.2778C57.1845 101.44 56.3045 101.68 55.6378 102.16C54.9711 102.613 54.6378 103.293 54.6378 104.2C54.6378 105.107 54.9845 105.827 55.6778 106.36C56.3711 106.893 57.3178 107.16 58.5178 107.16ZM86.2838 110.56C84.3638 110.56 82.8838 110.213 81.8438 109.52C80.8304 108.827 80.0704 108.053 79.5638 107.2H78.9238V110H74.8838V82H79.0038V92.96H79.6438C79.9638 92.4267 80.3904 91.92 80.9238 91.44C81.4571 90.9333 82.1638 90.52 83.0438 90.2C83.9238 89.88 85.0038 89.72 86.2838 89.72C87.9371 89.72 89.4571 90.12 90.8438 90.92C92.2304 91.72 93.3371 92.88 94.1638 94.4C94.9904 95.92 95.4038 97.7333 95.4038 99.84V100.44C95.4038 102.573 94.9771 104.4 94.1238 105.92C93.2971 107.413 92.1904 108.56 90.8038 109.36C89.4438 110.16 87.9371 110.56 86.2838 110.56ZM85.0838 106.96C86.8704 106.96 88.3371 106.387 89.4838 105.24C90.6571 104.093 91.2438 102.453 91.2438 100.32V99.96C91.2438 97.8533 90.6704 96.2267 89.5238 95.08C88.3771 93.9333 86.8971 93.36 85.0838 93.36C83.3238 93.36 81.8571 93.9333 80.6838 95.08C79.5371 96.2267 78.9638 97.8533 78.9638 99.96V100.32C78.9638 102.453 79.5371 104.093 80.6838 105.24C81.8571 106.387 83.3238 106.96 85.0838 106.96ZM109.549 110.56C107.549 110.56 105.802 110.147 104.309 109.32C102.815 108.467 101.642 107.28 100.789 105.76C99.9621 104.213 99.5488 102.427 99.5488 100.4V99.92C99.5488 97.8667 99.9621 96.08 100.789 94.56C101.615 93.0133 102.762 91.8267 104.229 91C105.722 90.1467 107.442 89.72 109.389 89.72C111.282 89.72 112.935 90.1467 114.349 91C115.789 91.8267 116.909 92.9867 117.709 94.48C118.509 95.9733 118.909 97.72 118.909 99.72V101.28H103.749C103.802 103.013 104.375 104.4 105.469 105.44C106.589 106.453 107.975 106.96 109.629 106.96C111.175 106.96 112.335 106.613 113.109 105.92C113.909 105.227 114.522 104.427 114.949 103.52L118.349 105.28C117.975 106.027 117.429 106.813 116.709 107.64C116.015 108.467 115.095 109.16 113.949 109.72C112.802 110.28 111.335 110.56 109.549 110.56ZM103.789 98.12H114.709C114.602 96.6267 114.069 95.4667 113.109 94.64C112.149 93.7867 110.895 93.36 109.349 93.36C107.802 93.36 106.535 93.7867 105.549 94.64C104.589 95.4667 104.002 96.6267 103.789 98.12ZM123.868 110V82H127.988V110H123.868Z" fill="black"/>
<rect x="20" y="122" width="119" height="51" rx="7" fill="#B9FF66"/>
<path d="M29.92 161V133H34.24V157.08H47.72V161H29.92ZM57.9178 161.56C56.5045 161.56 55.2378 161.32 54.1178 160.84C53.0245 160.36 52.1445 159.653 51.4778 158.72C50.8378 157.787 50.5178 156.653 50.5178 155.32C50.5178 153.96 50.8378 152.84 51.4778 151.96C52.1445 151.053 53.0378 150.373 54.1578 149.92C55.3045 149.467 56.5978 149.24 58.0378 149.24H64.0378V147.96C64.0378 146.813 63.6911 145.893 62.9978 145.2C62.3045 144.507 61.2378 144.16 59.7978 144.16C58.3845 144.16 57.3045 144.493 56.5578 145.16C55.8111 145.827 55.3178 146.693 55.0778 147.76L51.2378 146.52C51.5578 145.453 52.0645 144.493 52.7578 143.64C53.4778 142.76 54.4245 142.053 55.5978 141.52C56.7711 140.987 58.1845 140.72 59.8378 140.72C62.3978 140.72 64.4111 141.373 65.8778 142.68C67.3445 143.987 68.0778 145.84 68.0778 148.24V156.36C68.0778 157.16 68.4511 157.56 69.1978 157.56H70.8778V161H67.7978C66.8645 161 66.1045 160.76 65.5178 160.28C64.9311 159.8 64.6378 159.147 64.6378 158.32V158.2H64.0378C63.8245 158.6 63.5045 159.067 63.0778 159.6C62.6511 160.133 62.0245 160.6 61.1978 161C60.3711 161.373 59.2778 161.56 57.9178 161.56ZM58.5178 158.16C60.1711 158.16 61.5045 157.693 62.5178 156.76C63.5311 155.8 64.0378 154.493 64.0378 152.84V152.44H58.2778C57.1845 152.44 56.3045 152.68 55.6378 153.16C54.9711 153.613 54.6378 154.293 54.6378 155.2C54.6378 156.107 54.9845 156.827 55.6778 157.36C56.3711 157.893 57.3178 158.16 58.5178 158.16ZM86.2838 161.56C84.3638 161.56 82.8838 161.213 81.8438 160.52C80.8304 159.827 80.0704 159.053 79.5638 158.2H78.9238V161H74.8838V133H79.0038V143.96H79.6438C79.9638 143.427 80.3904 142.92 80.9238 142.44C81.4571 141.933 82.1638 141.52 83.0438 141.2C83.9238 140.88 85.0038 140.72 86.2838 140.72C87.9371 140.72 89.4571 141.12 90.8438 141.92C92.2304 142.72 93.3371 143.88 94.1638 145.4C94.9904 146.92 95.4038 148.733 95.4038 150.84V151.44C95.4038 153.573 94.9771 155.4 94.1238 156.92C93.2971 158.413 92.1904 159.56 90.8038 160.36C89.4438 161.16 87.9371 161.56 86.2838 161.56ZM85.0838 157.96C86.8704 157.96 88.3371 157.387 89.4838 156.24C90.6571 155.093 91.2438 153.453 91.2438 151.32V150.96C91.2438 148.853 90.6704 147.227 89.5238 146.08C88.3771 144.933 86.8971 144.36 85.0838 144.36C83.3238 144.36 81.8571 144.933 80.6838 146.08C79.5371 147.227 78.9638 148.853 78.9638 150.96V151.32C78.9638 153.453 79.5371 155.093 80.6838 156.24C81.8571 157.387 83.3238 157.96 85.0838 157.96ZM109.549 161.56C107.549 161.56 105.802 161.147 104.309 160.32C102.815 159.467 101.642 158.28 100.789 156.76C99.9621 155.213 99.5488 153.427 99.5488 151.4V150.92C99.5488 148.867 99.9621 147.08 100.789 145.56C101.615 144.013 102.762 142.827 104.229 142C105.722 141.147 107.442 140.72 109.389 140.72C111.282 140.72 112.935 141.147 114.349 142C115.789 142.827 116.909 143.987 117.709 145.48C118.509 146.973 118.909 148.72 118.909 150.72V152.28H103.749C103.802 154.013 104.375 155.4 105.469 156.44C106.589 157.453 107.975 157.96 109.629 157.96C111.175 157.96 112.335 157.613 113.109 156.92C113.909 156.227 114.522 155.427 114.949 154.52L118.349 156.28C117.975 157.027 117.429 157.813 116.709 158.64C116.015 159.467 115.095 160.16 113.949 160.72C112.802 161.28 111.335 161.56 109.549 161.56ZM103.789 149.12H114.709C114.602 147.627 114.069 146.467 113.109 145.64C112.149 144.787 110.895 144.36 109.349 144.36C107.802 144.36 106.535 144.787 105.549 145.64C104.589 146.467 104.002 147.627 103.789 149.12ZM123.868 161V133H127.988V161H123.868Z" fill="black"/>
<rect x="20" y="193" width="119" height="51" rx="7" fill="white"/>
<path d="M29.92 232V204H34.24V228.08H47.72V232H29.92ZM57.9178 232.56C56.5045 232.56 55.2378 232.32 54.1178 231.84C53.0245 231.36 52.1445 230.653 51.4778 229.72C50.8378 228.787 50.5178 227.653 50.5178 226.32C50.5178 224.96 50.8378 223.84 51.4778 222.96C52.1445 222.053 53.0378 221.373 54.1578 220.92C55.3045 220.467 56.5978 220.24 58.0378 220.24H64.0378V218.96C64.0378 217.813 63.6911 216.893 62.9978 216.2C62.3045 215.507 61.2378 215.16 59.7978 215.16C58.3845 215.16 57.3045 215.493 56.5578 216.16C55.8111 216.827 55.3178 217.693 55.0778 218.76L51.2378 217.52C51.5578 216.453 52.0645 215.493 52.7578 214.64C53.4778 213.76 54.4245 213.053 55.5978 212.52C56.7711 211.987 58.1845 211.72 59.8378 211.72C62.3978 211.72 64.4111 212.373 65.8778 213.68C67.3445 214.987 68.0778 216.84 68.0778 219.24V227.36C68.0778 228.16 68.4511 228.56 69.1978 228.56H70.8778V232H67.7978C66.8645 232 66.1045 231.76 65.5178 231.28C64.9311 230.8 64.6378 230.147 64.6378 229.32V229.2H64.0378C63.8245 229.6 63.5045 230.067 63.0778 230.6C62.6511 231.133 62.0245 231.6 61.1978 232C60.3711 232.373 59.2778 232.56 57.9178 232.56ZM58.5178 229.16C60.1711 229.16 61.5045 228.693 62.5178 227.76C63.5311 226.8 64.0378 225.493 64.0378 223.84V223.44H58.2778C57.1845 223.44 56.3045 223.68 55.6378 224.16C54.9711 224.613 54.6378 225.293 54.6378 226.2C54.6378 227.107 54.9845 227.827 55.6778 228.36C56.3711 228.893 57.3178 229.16 58.5178 229.16ZM86.2838 232.56C84.3638 232.56 82.8838 232.213 81.8438 231.52C80.8304 230.827 80.0704 230.053 79.5638 229.2H78.9238V232H74.8838V204H79.0038V214.96H79.6438C79.9638 214.427 80.3904 213.92 80.9238 213.44C81.4571 212.933 82.1638 212.52 83.0438 212.2C83.9238 211.88 85.0038 211.72 86.2838 211.72C87.9371 211.72 89.4571 212.12 90.8438 212.92C92.2304 213.72 93.3371 214.88 94.1638 216.4C94.9904 217.92 95.4038 219.733 95.4038 221.84V222.44C95.4038 224.573 94.9771 226.4 94.1238 227.92C93.2971 229.413 92.1904 230.56 90.8038 231.36C89.4438 232.16 87.9371 232.56 86.2838 232.56ZM85.0838 228.96C86.8704 228.96 88.3371 228.387 89.4838 227.24C90.6571 226.093 91.2438 224.453 91.2438 222.32V221.96C91.2438 219.853 90.6704 218.227 89.5238 217.08C88.3771 215.933 86.8971 215.36 85.0838 215.36C83.3238 215.36 81.8571 215.933 80.6838 217.08C79.5371 218.227 78.9638 219.853 78.9638 221.96V222.32C78.9638 224.453 79.5371 226.093 80.6838 227.24C81.8571 228.387 83.3238 228.96 85.0838 228.96ZM109.549 232.56C107.549 232.56 105.802 232.147 104.309 231.32C102.815 230.467 101.642 229.28 100.789 227.76C99.9621 226.213 99.5488 224.427 99.5488 222.4V221.92C99.5488 219.867 99.9621 218.08 100.789 216.56C101.615 215.013 102.762 213.827 104.229 213C105.722 212.147 107.442 211.72 109.389 211.72C111.282 211.72 112.935 212.147 114.349 213C115.789 213.827 116.909 214.987 117.709 216.48C118.509 217.973 118.909 219.72 118.909 221.72V223.28H103.749C103.802 225.013 104.375 226.4 105.469 227.44C106.589 228.453 107.975 228.96 109.629 228.96C111.175 228.96 112.335 228.613 113.109 227.92C113.909 227.227 114.522 226.427 114.949 225.52L118.349 227.28C117.975 228.027 117.429 228.813 116.709 229.64C116.015 230.467 115.095 231.16 113.949 231.72C112.802 232.28 111.335 232.56 109.549 232.56ZM103.789 220.12H114.709C114.602 218.627 114.069 217.467 113.109 216.64C112.149 215.787 110.895 215.36 109.349 215.36C107.802 215.36 106.535 215.787 105.549 216.64C104.589 217.467 104.002 218.627 103.789 220.12ZM123.868 232V204H127.988V232H123.868Z" fill="black"/>
<rect x="20" y="244" width="119" height="51" rx="7" fill="white"/>
<path d="M29.92 283V255H34.24V279.08H47.72V283H29.92ZM57.9178 283.56C56.5045 283.56 55.2378 283.32 54.1178 282.84C53.0245 282.36 52.1445 281.653 51.4778 280.72C50.8378 279.787 50.5178 278.653 50.5178 277.32C50.5178 275.96 50.8378 274.84 51.4778 273.96C52.1445 273.053 53.0378 272.373 54.1578 271.92C55.3045 271.467 56.5978 271.24 58.0378 271.24H64.0378V269.96C64.0378 268.813 63.6911 267.893 62.9978 267.2C62.3045 266.507 61.2378 266.16 59.7978 266.16C58.3845 266.16 57.3045 266.493 56.5578 267.16C55.8111 267.827 55.3178 268.693 55.0778 269.76L51.2378 268.52C51.5578 267.453 52.0645 266.493 52.7578 265.64C53.4778 264.76 54.4245 264.053 55.5978 263.52C56.7711 262.987 58.1845 262.72 59.8378 262.72C62.3978 262.72 64.4111 263.373 65.8778 264.68C67.3445 265.987 68.0778 267.84 68.0778 270.24V278.36C68.0778 279.16 68.4511 279.56 69.1978 279.56H70.8778V283H67.7978C66.8645 283 66.1045 282.76 65.5178 282.28C64.9311 281.8 64.6378 281.147 64.6378 280.32V280.2H64.0378C63.8245 280.6 63.5045 281.067 63.0778 281.6C62.6511 282.133 62.0245 282.6 61.1978 283C60.3711 283.373 59.2778 283.56 57.9178 283.56ZM58.5178 280.16C60.1711 280.16 61.5045 279.693 62.5178 278.76C63.5311 277.8 64.0378 276.493 64.0378 274.84V274.44H58.2778C57.1845 274.44 56.3045 274.68 55.6378 275.16C54.9711 275.613 54.6378 276.293 54.6378 277.2C54.6378 278.107 54.9845 278.827 55.6778 279.36C56.3711 279.893 57.3178 280.16 58.5178 280.16ZM86.2838 283.56C84.3638 283.56 82.8838 283.213 81.8438 282.52C80.8304 281.827 80.0704 281.053 79.5638 280.2H78.9238V283H74.8838V255H79.0038V265.96H79.6438C79.9638 265.427 80.3904 264.92 80.9238 264.44C81.4571 263.933 82.1638 263.52 83.0438 263.2C83.9238 262.88 85.0038 262.72 86.2838 262.72C87.9371 262.72 89.4571 263.12 90.8438 263.92C92.2304 264.72 93.3371 265.88 94.1638 267.4C94.9904 268.92 95.4038 270.733 95.4038 272.84V273.44C95.4038 275.573 94.9771 277.4 94.1238 278.92C93.2971 280.413 92.1904 281.56 90.8038 282.36C89.4438 283.16 87.9371 283.56 86.2838 283.56ZM85.0838 279.96C86.8704 279.96 88.3371 279.387 89.4838 278.24C90.6571 277.093 91.2438 275.453 91.2438 273.32V272.96C91.2438 270.853 90.6704 269.227 89.5238 268.08C88.3771 266.933 86.8971 266.36 85.0838 266.36C83.3238 266.36 81.8571 266.933 80.6838 268.08C79.5371 269.227 78.9638 270.853 78.9638 272.96V273.32C78.9638 275.453 79.5371 277.093 80.6838 278.24C81.8571 279.387 83.3238 279.96 85.0838 279.96ZM109.549 283.56C107.549 283.56 105.802 283.147 104.309 282.32C102.815 281.467 101.642 280.28 100.789 278.76C99.9621 277.213 99.5488 275.427 99.5488 273.4V272.92C99.5488 270.867 99.9621 269.08 100.789 267.56C101.615 266.013 102.762 264.827 104.229 264C105.722 263.147 107.442 262.72 109.389 262.72C111.282 262.72 112.935 263.147 114.349 264C115.789 264.827 116.909 265.987 117.709 267.48C118.509 268.973 118.909 270.72 118.909 272.72V274.28H103.749C103.802 276.013 104.375 277.4 105.469 278.44C106.589 279.453 107.975 279.96 109.629 279.96C111.175 279.96 112.335 279.613 113.109 278.92C113.909 278.227 114.522 277.427 114.949 276.52L118.349 278.28C117.975 279.027 117.429 279.813 116.709 280.64C116.015 281.467 115.095 282.16 113.949 282.72C112.802 283.28 111.335 283.56 109.549 283.56ZM103.789 271.12H114.709C114.602 269.627 114.069 268.467 113.109 267.64C112.149 266.787 110.895 266.36 109.349 266.36C107.802 266.36 106.535 266.787 105.549 267.64C104.589 268.467 104.002 269.627 103.789 271.12ZM123.868 283V255H127.988V283H123.868Z" fill="black"/>
<rect x="20" y="295" width="119" height="51" rx="7" fill="white"/>
<path d="M29.92 334V306H34.24V330.08H47.72V334H29.92ZM57.9178 334.56C56.5045 334.56 55.2378 334.32 54.1178 333.84C53.0245 333.36 52.1445 332.653 51.4778 331.72C50.8378 330.787 50.5178 329.653 50.5178 328.32C50.5178 326.96 50.8378 325.84 51.4778 324.96C52.1445 324.053 53.0378 323.373 54.1578 322.92C55.3045 322.467 56.5978 322.24 58.0378 322.24H64.0378V320.96C64.0378 319.813 63.6911 318.893 62.9978 318.2C62.3045 317.507 61.2378 317.16 59.7978 317.16C58.3845 317.16 57.3045 317.493 56.5578 318.16C55.8111 318.827 55.3178 319.693 55.0778 320.76L51.2378 319.52C51.5578 318.453 52.0645 317.493 52.7578 316.64C53.4778 315.76 54.4245 315.053 55.5978 314.52C56.7711 313.987 58.1845 313.72 59.8378 313.72C62.3978 313.72 64.4111 314.373 65.8778 315.68C67.3445 316.987 68.0778 318.84 68.0778 321.24V329.36C68.0778 330.16 68.4511 330.56 69.1978 330.56H70.8778V334H67.7978C66.8645 334 66.1045 333.76 65.5178 333.28C64.9311 332.8 64.6378 332.147 64.6378 331.32V331.2H64.0378C63.8245 331.6 63.5045 332.067 63.0778 332.6C62.6511 333.133 62.0245 333.6 61.1978 334C60.3711 334.373 59.2778 334.56 57.9178 334.56ZM58.5178 331.16C60.1711 331.16 61.5045 330.693 62.5178 329.76C63.5311 328.8 64.0378 327.493 64.0378 325.84V325.44H58.2778C57.1845 325.44 56.3045 325.68 55.6378 326.16C54.9711 326.613 54.6378 327.293 54.6378 328.2C54.6378 329.107 54.9845 329.827 55.6778 330.36C56.3711 330.893 57.3178 331.16 58.5178 331.16ZM86.2838 334.56C84.3638 334.56 82.8838 334.213 81.8438 333.52C80.8304 332.827 80.0704 332.053 79.5638 331.2H78.9238V334H74.8838V306H79.0038V316.96H79.6438C79.9638 316.427 80.3904 315.92 80.9238 315.44C81.4571 314.933 82.1638 314.52 83.0438 314.2C83.9238 313.88 85.0038 313.72 86.2838 313.72C87.9371 313.72 89.4571 314.12 90.8438 314.92C92.2304 315.72 93.3371 316.88 94.1638 318.4C94.9904 319.92 95.4038 321.733 95.4038 323.84V324.44C95.4038 326.573 94.9771 328.4 94.1238 329.92C93.2971 331.413 92.1904 332.56 90.8038 333.36C89.4438 334.16 87.9371 334.56 86.2838 334.56ZM85.0838 330.96C86.8704 330.96 88.3371 330.387 89.4838 329.24C90.6571 328.093 91.2438 326.453 91.2438 324.32V323.96C91.2438 321.853 90.6704 320.227 89.5238 319.08C88.3771 317.933 86.8971 317.36 85.0838 317.36C83.3238 317.36 81.8571 317.933 80.6838 319.08C79.5371 320.227 78.9638 321.853 78.9638 323.96V324.32C78.9638 326.453 79.5371 328.093 80.6838 329.24C81.8571 330.387 83.3238 330.96 85.0838 330.96ZM109.549 334.56C107.549 334.56 105.802 334.147 104.309 333.32C102.815 332.467 101.642 331.28 100.789 329.76C99.9621 328.213 99.5488 326.427 99.5488 324.4V323.92C99.5488 321.867 99.9621 320.08 100.789 318.56C101.615 317.013 102.762 315.827 104.229 315C105.722 314.147 107.442 313.72 109.389 313.72C111.282 313.72 112.935 314.147 114.349 315C115.789 315.827 116.909 316.987 117.709 318.48C118.509 319.973 118.909 321.72 118.909 323.72V325.28H103.749C103.802 327.013 104.375 328.4 105.469 329.44C106.589 330.453 107.975 330.96 109.629 330.96C111.175 330.96 112.335 330.613 113.109 329.92C113.909 329.227 114.522 328.427 114.949 327.52L118.349 329.28C117.975 330.027 117.429 330.813 116.709 331.64C116.015 332.467 115.095 333.16 113.949 333.72C112.802 334.28 111.335 334.56 109.549 334.56ZM103.789 322.12H114.709C114.602 320.627 114.069 319.467 113.109 318.64C112.149 317.787 110.895 317.36 109.349 317.36C107.802 317.36 106.535 317.787 105.549 318.64C104.589 319.467 104.002 320.627 103.789 322.12ZM123.868 334V306H127.988V334H123.868Z" fill="black"/>
<rect x="20" y="366" width="119" height="51" rx="7" fill="#191A23"/>
<path d="M29.92 405V377H34.24V401.08H47.72V405H29.92ZM57.9178 405.56C56.5045 405.56 55.2378 405.32 54.1178 404.84C53.0245 404.36 52.1445 403.653 51.4778 402.72C50.8378 401.787 50.5178 400.653 50.5178 399.32C50.5178 397.96 50.8378 396.84 51.4778 395.96C52.1445 395.053 53.0378 394.373 54.1578 393.92C55.3045 393.467 56.5978 393.24 58.0378 393.24H64.0378V391.96C64.0378 390.813 63.6911 389.893 62.9978 389.2C62.3045 388.507 61.2378 388.16 59.7978 388.16C58.3845 388.16 57.3045 388.493 56.5578 389.16C55.8111 389.827 55.3178 390.693 55.0778 391.76L51.2378 390.52C51.5578 389.453 52.0645 388.493 52.7578 387.64C53.4778 386.76 54.4245 386.053 55.5978 385.52C56.7711 384.987 58.1845 384.72 59.8378 384.72C62.3978 384.72 64.4111 385.373 65.8778 386.68C67.3445 387.987 68.0778 389.84 68.0778 392.24V400.36C68.0778 401.16 68.4511 401.56 69.1978 401.56H70.8778V405H67.7978C66.8645 405 66.1045 404.76 65.5178 404.28C64.9311 403.8 64.6378 403.147 64.6378 402.32V402.2H64.0378C63.8245 402.6 63.5045 403.067 63.0778 403.6C62.6511 404.133 62.0245 404.6 61.1978 405C60.3711 405.373 59.2778 405.56 57.9178 405.56ZM58.5178 402.16C60.1711 402.16 61.5045 401.693 62.5178 400.76C63.5311 399.8 64.0378 398.493 64.0378 396.84V396.44H58.2778C57.1845 396.44 56.3045 396.68 55.6378 397.16C54.9711 397.613 54.6378 398.293 54.6378 399.2C54.6378 400.107 54.9845 400.827 55.6778 401.36C56.3711 401.893 57.3178 402.16 58.5178 402.16ZM86.2838 405.56C84.3638 405.56 82.8838 405.213 81.8438 404.52C80.8304 403.827 80.0704 403.053 79.5638 402.2H78.9238V405H74.8838V377H79.0038V387.96H79.6438C79.9638 387.427 80.3904 386.92 80.9238 386.44C81.4571 385.933 82.1638 385.52 83.0438 385.2C83.9238 384.88 85.0038 384.72 86.2838 384.72C87.9371 384.72 89.4571 385.12 90.8438 385.92C92.2304 386.72 93.3371 387.88 94.1638 389.4C94.9904 390.92 95.4038 392.733 95.4038 394.84V395.44C95.4038 397.573 94.9771 399.4 94.1238 400.92C93.2971 402.413 92.1904 403.56 90.8038 404.36C89.4438 405.16 87.9371 405.56 86.2838 405.56ZM85.0838 401.96C86.8704 401.96 88.3371 401.387 89.4838 400.24C90.6571 399.093 91.2438 397.453 91.2438 395.32V394.96C91.2438 392.853 90.6704 391.227 89.5238 390.08C88.3771 388.933 86.8971 388.36 85.0838 388.36C83.3238 388.36 81.8571 388.933 80.6838 390.08C79.5371 391.227 78.9638 392.853 78.9638 394.96V395.32C78.9638 397.453 79.5371 399.093 80.6838 400.24C81.8571 401.387 83.3238 401.96 85.0838 401.96ZM109.549 405.56C107.549 405.56 105.802 405.147 104.309 404.32C102.815 403.467 101.642 402.28 100.789 400.76C99.9621 399.213 99.5488 397.427 99.5488 395.4V394.92C99.5488 392.867 99.9621 391.08 100.789 389.56C101.615 388.013 102.762 386.827 104.229 386C105.722 385.147 107.442 384.72 109.389 384.72C111.282 384.72 112.935 385.147 114.349 386C115.789 386.827 116.909 387.987 117.709 389.48C118.509 390.973 118.909 392.72 118.909 394.72V396.28H103.749C103.802 398.013 104.375 399.4 105.469 400.44C106.589 401.453 107.975 401.96 109.629 401.96C111.175 401.96 112.335 401.613 113.109 400.92C113.909 400.227 114.522 399.427 114.949 398.52L118.349 400.28C117.975 401.027 117.429 401.813 116.709 402.64C116.015 403.467 115.095 404.16 113.949 404.72C112.802 405.28 111.335 405.56 109.549 405.56ZM103.789 393.12H114.709C114.602 391.627 114.069 390.467 113.109 389.64C112.149 388.787 110.895 388.36 109.349 388.36C107.802 388.36 106.535 388.787 105.549 389.64C104.589 390.467 104.002 391.627 103.789 393.12ZM123.868 405V377H127.988V405H123.868Z" fill="white"/>
<rect x="20" y="417" width="119" height="51" rx="7" fill="#191A23"/>
<path d="M29.92 456V428H34.24V452.08H47.72V456H29.92ZM57.9178 456.56C56.5045 456.56 55.2378 456.32 54.1178 455.84C53.0245 455.36 52.1445 454.653 51.4778 453.72C50.8378 452.787 50.5178 451.653 50.5178 450.32C50.5178 448.96 50.8378 447.84 51.4778 446.96C52.1445 446.053 53.0378 445.373 54.1578 444.92C55.3045 444.467 56.5978 444.24 58.0378 444.24H64.0378V442.96C64.0378 441.813 63.6911 440.893 62.9978 440.2C62.3045 439.507 61.2378 439.16 59.7978 439.16C58.3845 439.16 57.3045 439.493 56.5578 440.16C55.8111 440.827 55.3178 441.693 55.0778 442.76L51.2378 441.52C51.5578 440.453 52.0645 439.493 52.7578 438.64C53.4778 437.76 54.4245 437.053 55.5978 436.52C56.7711 435.987 58.1845 435.72 59.8378 435.72C62.3978 435.72 64.4111 436.373 65.8778 437.68C67.3445 438.987 68.0778 440.84 68.0778 443.24V451.36C68.0778 452.16 68.4511 452.56 69.1978 452.56H70.8778V456H67.7978C66.8645 456 66.1045 455.76 65.5178 455.28C64.9311 454.8 64.6378 454.147 64.6378 453.32V453.2H64.0378C63.8245 453.6 63.5045 454.067 63.0778 454.6C62.6511 455.133 62.0245 455.6 61.1978 456C60.3711 456.373 59.2778 456.56 57.9178 456.56ZM58.5178 453.16C60.1711 453.16 61.5045 452.693 62.5178 451.76C63.5311 450.8 64.0378 449.493 64.0378 447.84V447.44H58.2778C57.1845 447.44 56.3045 447.68 55.6378 448.16C54.9711 448.613 54.6378 449.293 54.6378 450.2C54.6378 451.107 54.9845 451.827 55.6778 452.36C56.3711 452.893 57.3178 453.16 58.5178 453.16ZM86.2838 456.56C84.3638 456.56 82.8838 456.213 81.8438 455.52C80.8304 454.827 80.0704 454.053 79.5638 453.2H78.9238V456H74.8838V428H79.0038V438.96H79.6438C79.9638 438.427 80.3904 437.92 80.9238 437.44C81.4571 436.933 82.1638 436.52 83.0438 436.2C83.9238 435.88 85.0038 435.72 86.2838 435.72C87.9371 435.72 89.4571 436.12 90.8438 436.92C92.2304 437.72 93.3371 438.88 94.1638 440.4C94.9904 441.92 95.4038 443.733 95.4038 445.84V446.44C95.4038 448.573 94.9771 450.4 94.1238 451.92C93.2971 453.413 92.1904 454.56 90.8038 455.36C89.4438 456.16 87.9371 456.56 86.2838 456.56ZM85.0838 452.96C86.8704 452.96 88.3371 452.387 89.4838 451.24C90.6571 450.093 91.2438 448.453 91.2438 446.32V445.96C91.2438 443.853 90.6704 442.227 89.5238 441.08C88.3771 439.933 86.8971 439.36 85.0838 439.36C83.3238 439.36 81.8571 439.933 80.6838 441.08C79.5371 442.227 78.9638 443.853 78.9638 445.96V446.32C78.9638 448.453 79.5371 450.093 80.6838 451.24C81.8571 452.387 83.3238 452.96 85.0838 452.96ZM109.549 456.56C107.549 456.56 105.802 456.147 104.309 455.32C102.815 454.467 101.642 453.28 100.789 451.76C99.9621 450.213 99.5488 448.427 99.5488 446.4V445.92C99.5488 443.867 99.9621 442.08 100.789 440.56C101.615 439.013 102.762 437.827 104.229 437C105.722 436.147 107.442 435.72 109.389 435.72C111.282 435.72 112.935 436.147 114.349 437C115.789 437.827 116.909 438.987 117.709 440.48C118.509 441.973 118.909 443.72 118.909 445.72V447.28H103.749C103.802 449.013 104.375 450.4 105.469 451.44C106.589 452.453 107.975 452.96 109.629 452.96C111.175 452.96 112.335 452.613 113.109 451.92C113.909 451.227 114.522 450.427 114.949 449.52L118.349 451.28C117.975 452.027 117.429 452.813 116.709 453.64C116.015 454.467 115.095 455.16 113.949 455.72C112.802 456.28 111.335 456.56 109.549 456.56ZM103.789 444.12H114.709C114.602 442.627 114.069 441.467 113.109 440.64C112.149 439.787 110.895 439.36 109.349 439.36C107.802 439.36 106.535 439.787 105.549 440.64C104.589 441.467 104.002 442.627 103.789 444.12ZM123.868 456V428H127.988V456H123.868Z" fill="white"/>
<rect x="20" y="468" width="119" height="51" rx="7" fill="#191A23"/>
<path d="M29.92 507V479H34.24V503.08H47.72V507H29.92ZM57.9178 507.56C56.5045 507.56 55.2378 507.32 54.1178 506.84C53.0245 506.36 52.1445 505.653 51.4778 504.72C50.8378 503.787 50.5178 502.653 50.5178 501.32C50.5178 499.96 50.8378 498.84 51.4778 497.96C52.1445 497.053 53.0378 496.373 54.1578 495.92C55.3045 495.467 56.5978 495.24 58.0378 495.24H64.0378V493.96C64.0378 492.813 63.6911 491.893 62.9978 491.2C62.3045 490.507 61.2378 490.16 59.7978 490.16C58.3845 490.16 57.3045 490.493 56.5578 491.16C55.8111 491.827 55.3178 492.693 55.0778 493.76L51.2378 492.52C51.5578 491.453 52.0645 490.493 52.7578 489.64C53.4778 488.76 54.4245 488.053 55.5978 487.52C56.7711 486.987 58.1845 486.72 59.8378 486.72C62.3978 486.72 64.4111 487.373 65.8778 488.68C67.3445 489.987 68.0778 491.84 68.0778 494.24V502.36C68.0778 503.16 68.4511 503.56 69.1978 503.56H70.8778V507H67.7978C66.8645 507 66.1045 506.76 65.5178 506.28C64.9311 505.8 64.6378 505.147 64.6378 504.32V504.2H64.0378C63.8245 504.6 63.5045 505.067 63.0778 505.6C62.6511 506.133 62.0245 506.6 61.1978 507C60.3711 507.373 59.2778 507.56 57.9178 507.56ZM58.5178 504.16C60.1711 504.16 61.5045 503.693 62.5178 502.76C63.5311 501.8 64.0378 500.493 64.0378 498.84V498.44H58.2778C57.1845 498.44 56.3045 498.68 55.6378 499.16C54.9711 499.613 54.6378 500.293 54.6378 501.2C54.6378 502.107 54.9845 502.827 55.6778 503.36C56.3711 503.893 57.3178 504.16 58.5178 504.16ZM86.2838 507.56C84.3638 507.56 82.8838 507.213 81.8438 506.52C80.8304 505.827 80.0704 505.053 79.5638 504.2H78.9238V507H74.8838V479H79.0038V489.96H79.6438C79.9638 489.427 80.3904 488.92 80.9238 488.44C81.4571 487.933 82.1638 487.52 83.0438 487.2C83.9238 486.88 85.0038 486.72 86.2838 486.72C87.9371 486.72 89.4571 487.12 90.8438 487.92C92.2304 488.72 93.3371 489.88 94.1638 491.4C94.9904 492.92 95.4038 494.733 95.4038 496.84V497.44C95.4038 499.573 94.9771 501.4 94.1238 502.92C93.2971 504.413 92.1904 505.56 90.8038 506.36C89.4438 507.16 87.9371 507.56 86.2838 507.56ZM85.0838 503.96C86.8704 503.96 88.3371 503.387 89.4838 502.24C90.6571 501.093 91.2438 499.453 91.2438 497.32V496.96C91.2438 494.853 90.6704 493.227 89.5238 492.08C88.3771 490.933 86.8971 490.36 85.0838 490.36C83.3238 490.36 81.8571 490.933 80.6838 492.08C79.5371 493.227 78.9638 494.853 78.9638 496.96V497.32C78.9638 499.453 79.5371 501.093 80.6838 502.24C81.8571 503.387 83.3238 503.96 85.0838 503.96ZM109.549 507.56C107.549 507.56 105.802 507.147 104.309 506.32C102.815 505.467 101.642 504.28 100.789 502.76C99.9621 501.213 99.5488 499.427 99.5488 497.4V496.92C99.5488 494.867 99.9621 493.08 100.789 491.56C101.615 490.013 102.762 488.827 104.229 488C105.722 487.147 107.442 486.72 109.389 486.72C111.282 486.72 112.935 487.147 114.349 488C115.789 488.827 116.909 489.987 117.709 491.48C118.509 492.973 118.909 494.72 118.909 496.72V498.28H103.749C103.802 500.013 104.375 501.4 105.469 502.44C106.589 503.453 107.975 503.96 109.629 503.96C111.175 503.96 112.335 503.613 113.109 502.92C113.909 502.227 114.522 501.427 114.949 500.52L118.349 502.28C117.975 503.027 117.429 503.813 116.709 504.64C116.015 505.467 115.095 506.16 113.949 506.72C112.802 507.28 111.335 507.56 109.549 507.56ZM103.789 495.12H114.709C114.602 493.627 114.069 492.467 113.109 491.64C112.149 490.787 110.895 490.36 109.349 490.36C107.802 490.36 106.535 490.787 105.549 491.64C104.589 492.467 104.002 493.627 103.789 495.12ZM123.868 507V479H127.988V507H123.868Z" fill="white"/>
</svg>
