<svg width="338" height="160" viewBox="0 0 338 160" fill="none" xmlns="http://www.w3.org/2000/svg">
<path d="M169 39.5C215.644 39.5 257.858 43.4715 288.398 49.8867C303.673 53.0952 316 56.9101 324.497 61.1299C328.746 63.2401 332.011 65.4394 334.208 67.6943C336.403 69.9476 337.5 72.2221 337.5 74.5C337.5 76.7779 336.403 79.0524 334.208 81.3057C332.011 83.5606 328.746 85.7599 324.497 87.8701C316 92.0899 303.673 95.9048 288.398 99.1133C257.858 105.529 215.644 109.5 169 109.5C122.356 109.5 80.1417 105.529 49.6016 99.1133C34.3275 95.9048 21.9997 92.0899 13.5029 87.8701C9.25392 85.7599 5.98872 83.5606 3.79199 81.3057C1.59696 79.0524 0.5 76.7779 0.5 74.5C0.5 72.2221 1.59696 69.9476 3.79199 67.6943C5.98872 65.4394 9.25392 63.2401 13.5029 61.1299C21.9997 56.9101 34.3275 53.0952 49.6016 49.8867C80.1417 43.4715 122.356 39.5 169 39.5Z" stroke="black"/>
<path d="M169 64.5C215.644 64.5 257.858 68.4715 288.398 74.8867C303.673 78.0952 316 81.9101 324.497 86.1299C328.746 88.2401 332.011 90.4394 334.208 92.6943C336.403 94.9476 337.5 97.2221 337.5 99.5C337.5 101.778 336.403 104.052 334.208 106.306C332.011 108.561 328.746 110.76 324.497 112.87C316 117.09 303.673 120.905 288.398 124.113C257.858 130.529 215.644 134.5 169 134.5C122.356 134.5 80.1417 130.529 49.6016 124.113C34.3275 120.905 21.9997 117.09 13.5029 112.87C9.25392 110.76 5.98872 108.561 3.79199 106.306C1.59696 104.052 0.5 101.778 0.5 99.5C0.5 97.2221 1.59696 94.9476 3.79199 92.6943C5.98872 90.4394 9.25392 88.2401 13.5029 86.1299C21.9997 81.9101 34.3275 78.0952 49.6016 74.8867C80.1417 68.4715 122.356 64.5 169 64.5Z" stroke="black"/>
<path d="M169 89.5C215.644 89.5 257.858 93.4715 288.398 99.8867C303.673 103.095 316 106.91 324.497 111.13C328.746 113.24 332.011 115.439 334.208 117.694C336.403 119.948 337.5 122.222 337.5 124.5C337.5 126.778 336.403 129.052 334.208 131.306C332.011 133.561 328.746 135.76 324.497 137.87C316 142.09 303.673 145.905 288.398 149.113C257.858 155.529 215.644 159.5 169 159.5C122.356 159.5 80.1417 155.529 49.6016 149.113C34.3275 145.905 21.9997 142.09 13.5029 137.87C9.25392 135.76 5.98872 133.561 3.79199 131.306C1.59696 129.052 0.5 126.778 0.5 124.5C0.5 122.222 1.59696 119.948 3.79199 117.694C5.98872 115.439 9.25392 113.24 13.5029 111.13C21.9997 106.91 34.3275 103.095 49.6016 99.8867C80.1417 93.4715 122.356 89.5 169 89.5Z" stroke="black"/>
<circle cx="152.5" cy="62.5" r="62" fill="black" stroke="black"/>
<ellipse cx="132" cy="49" rx="10" ry="20" fill="white"/>
<ellipse cx="173" cy="49" rx="10" ry="20" fill="white"/>
</svg>
