<svg width="151" height="530" viewBox="0 0 151 530" fill="none" xmlns="http://www.w3.org/2000/svg">
<rect x="0.5" y="0.5" width="150" height="529" rx="4.5" stroke="#9747FF" stroke-dasharray="10 5"/>
<circle cx="40.5" cy="40.5" r="20.5" fill="white"/>
<path d="M31.2501 44.7009C30.5326 45.1151 30.2868 46.0325 30.701 46.75C31.1152 47.4674 32.0326 47.7132 32.7501 47.299L31.2501 44.7009ZM50.7694 36.3882C50.9839 35.588 50.509 34.7655 49.7088 34.5511L36.6688 31.057C35.8686 30.8426 35.0461 31.3175 34.8317 32.1177C34.6173 32.9179 35.0921 33.7404 35.8923 33.9548L47.4834 37.0606L44.3776 48.6517C44.1632 49.4519 44.6381 50.2744 45.4383 50.4888C46.2385 50.7033 47.061 50.2284 47.2754 49.4282L50.7694 36.3882ZM32.7501 47.299L50.0706 37.299L48.5706 34.7009L31.2501 44.7009L32.7501 47.299Z" fill="#B9FF66"/>
<path d="M77.6 47.5V33.5H79.28V45.98H86.36V47.5H77.6ZM91.578 47.78C90.898 47.78 90.278 47.66 89.718 47.42C89.158 47.18 88.718 46.8333 88.398 46.38C88.078 45.9267 87.918 45.3733 87.918 44.72C87.918 44.0533 88.078 43.5067 88.398 43.08C88.718 42.64 89.158 42.3133 89.718 42.1C90.278 41.8733 90.9046 41.76 91.598 41.76H94.898V41.04C94.898 40.3467 94.6913 39.8 94.278 39.4C93.878 39 93.278 38.8 92.478 38.8C91.6913 38.8 91.078 38.9933 90.638 39.38C90.198 39.7533 89.898 40.26 89.738 40.9L88.258 40.42C88.418 39.8733 88.6713 39.38 89.018 38.94C89.3646 38.4867 89.8246 38.1267 90.398 37.86C90.9846 37.58 91.6846 37.44 92.498 37.44C93.7513 37.44 94.7246 37.7667 95.418 38.42C96.1113 39.06 96.458 39.9667 96.458 41.14V45.56C96.458 45.96 96.6446 46.16 97.018 46.16H97.918V47.5H96.538C96.098 47.5 95.7446 47.38 95.478 47.14C95.2113 46.8867 95.078 46.5533 95.078 46.14V46.04H94.838C94.6913 46.2933 94.4913 46.56 94.238 46.84C93.998 47.1067 93.6646 47.3267 93.238 47.5C92.8113 47.6867 92.258 47.78 91.578 47.78ZM91.758 46.42C92.6913 46.42 93.4446 46.1467 94.018 45.6C94.6046 45.04 94.898 44.26 94.898 43.26V43.04H91.658C91.0313 43.04 90.5113 43.18 90.098 43.46C89.698 43.7267 89.498 44.1333 89.498 44.68C89.498 45.2267 89.7046 45.6533 90.118 45.96C90.5446 46.2667 91.0913 46.42 91.758 46.42ZM105.502 47.78C104.489 47.78 103.695 47.5867 103.122 47.2C102.562 46.8133 102.155 46.3733 101.902 45.88H101.622V47.5H100.082V33.5H101.662V39.26H101.942C102.102 38.9533 102.329 38.6667 102.622 38.4C102.915 38.12 103.295 37.8933 103.762 37.72C104.242 37.5333 104.822 37.44 105.502 37.44C106.355 37.44 107.129 37.6467 107.822 38.06C108.529 38.46 109.089 39.04 109.502 39.8C109.915 40.5467 110.122 41.44 110.122 42.48V42.74C110.122 43.78 109.909 44.68 109.482 45.44C109.069 46.2 108.509 46.78 107.802 47.18C107.109 47.58 106.342 47.78 105.502 47.78ZM105.082 46.38C106.095 46.38 106.915 46.06 107.542 45.42C108.182 44.7667 108.502 43.86 108.502 42.7V42.52C108.502 41.36 108.182 40.46 107.542 39.82C106.915 39.1667 106.095 38.84 105.082 38.84C104.082 38.84 103.255 39.1667 102.602 39.82C101.962 40.46 101.642 41.36 101.642 42.52V42.7C101.642 43.86 101.962 44.7667 102.602 45.42C103.255 46.06 104.082 46.38 105.082 46.38ZM117.433 47.78C116.446 47.78 115.58 47.5733 114.833 47.16C114.086 46.7333 113.506 46.14 113.093 45.38C112.68 44.62 112.473 43.74 112.473 42.74V42.5C112.473 41.4867 112.68 40.6 113.093 39.84C113.506 39.08 114.08 38.4933 114.813 38.08C115.546 37.6533 116.386 37.44 117.333 37.44C118.253 37.44 119.066 37.64 119.773 38.04C120.48 38.4267 121.033 38.9867 121.433 39.72C121.833 40.4533 122.033 41.3133 122.033 42.3V43.02H114.053C114.093 44.0733 114.433 44.9 115.073 45.5C115.713 46.0867 116.513 46.38 117.473 46.38C118.313 46.38 118.96 46.1867 119.413 45.8C119.866 45.4133 120.213 44.9533 120.453 44.42L121.813 45.08C121.613 45.4933 121.333 45.9067 120.973 46.32C120.626 46.7333 120.166 47.08 119.593 47.36C119.033 47.64 118.313 47.78 117.433 47.78ZM114.073 41.72H120.433C120.38 40.8133 120.066 40.1067 119.493 39.6C118.933 39.0933 118.213 38.84 117.333 38.84C116.44 38.84 115.706 39.0933 115.133 39.6C114.56 40.1067 114.206 40.8133 114.073 41.72ZM124.789 47.5V33.5H126.369V47.5H124.789Z" fill="white"/>
<circle cx="40.5" cy="101.5" r="20.5" fill="white"/>
<path d="M31.2501 105.701C30.5326 106.115 30.2868 107.033 30.701 107.75C31.1152 108.467 32.0326 108.713 32.7501 108.299L31.2501 105.701ZM50.7694 97.3882C50.9839 96.588 50.509 95.7655 49.7088 95.5511L36.6688 92.057C35.8686 91.8426 35.0461 92.3175 34.8317 93.1177C34.6173 93.9179 35.0921 94.7404 35.8923 94.9548L47.4834 98.0606L44.3776 109.652C44.1632 110.452 44.6381 111.274 45.4383 111.489C46.2385 111.703 47.061 111.228 47.2754 110.428L50.7694 97.3882ZM32.7501 108.299L50.0706 98.299L48.5706 95.7009L31.2501 105.701L32.7501 108.299Z" fill="black"/>
<path d="M77.6 108.5V94.5H79.28V106.98H86.36V108.5H77.6ZM91.578 108.78C90.898 108.78 90.278 108.66 89.718 108.42C89.158 108.18 88.718 107.833 88.398 107.38C88.078 106.927 87.918 106.373 87.918 105.72C87.918 105.053 88.078 104.507 88.398 104.08C88.718 103.64 89.158 103.313 89.718 103.1C90.278 102.873 90.9046 102.76 91.598 102.76H94.898V102.04C94.898 101.347 94.6913 100.8 94.278 100.4C93.878 100 93.278 99.8 92.478 99.8C91.6913 99.8 91.078 99.9933 90.638 100.38C90.198 100.753 89.898 101.26 89.738 101.9L88.258 101.42C88.418 100.873 88.6713 100.38 89.018 99.94C89.3646 99.4867 89.8246 99.1267 90.398 98.86C90.9846 98.58 91.6846 98.44 92.498 98.44C93.7513 98.44 94.7246 98.7667 95.418 99.42C96.1113 100.06 96.458 100.967 96.458 102.14V106.56C96.458 106.96 96.6446 107.16 97.018 107.16H97.918V108.5H96.538C96.098 108.5 95.7446 108.38 95.478 108.14C95.2113 107.887 95.078 107.553 95.078 107.14V107.04H94.838C94.6913 107.293 94.4913 107.56 94.238 107.84C93.998 108.107 93.6646 108.327 93.238 108.5C92.8113 108.687 92.258 108.78 91.578 108.78ZM91.758 107.42C92.6913 107.42 93.4446 107.147 94.018 106.6C94.6046 106.04 94.898 105.26 94.898 104.26V104.04H91.658C91.0313 104.04 90.5113 104.18 90.098 104.46C89.698 104.727 89.498 105.133 89.498 105.68C89.498 106.227 89.7046 106.653 90.118 106.96C90.5446 107.267 91.0913 107.42 91.758 107.42ZM105.502 108.78C104.489 108.78 103.695 108.587 103.122 108.2C102.562 107.813 102.155 107.373 101.902 106.88H101.622V108.5H100.082V94.5H101.662V100.26H101.942C102.102 99.9533 102.329 99.6667 102.622 99.4C102.915 99.12 103.295 98.8933 103.762 98.72C104.242 98.5333 104.822 98.44 105.502 98.44C106.355 98.44 107.129 98.6467 107.822 99.06C108.529 99.46 109.089 100.04 109.502 100.8C109.915 101.547 110.122 102.44 110.122 103.48V103.74C110.122 104.78 109.909 105.68 109.482 106.44C109.069 107.2 108.509 107.78 107.802 108.18C107.109 108.58 106.342 108.78 105.502 108.78ZM105.082 107.38C106.095 107.38 106.915 107.06 107.542 106.42C108.182 105.767 108.502 104.86 108.502 103.7V103.52C108.502 102.36 108.182 101.46 107.542 100.82C106.915 100.167 106.095 99.84 105.082 99.84C104.082 99.84 103.255 100.167 102.602 100.82C101.962 101.46 101.642 102.36 101.642 103.52V103.7C101.642 104.86 101.962 105.767 102.602 106.42C103.255 107.06 104.082 107.38 105.082 107.38ZM117.433 108.78C116.446 108.78 115.58 108.573 114.833 108.16C114.086 107.733 113.506 107.14 113.093 106.38C112.68 105.62 112.473 104.74 112.473 103.74V103.5C112.473 102.487 112.68 101.6 113.093 100.84C113.506 100.08 114.08 99.4933 114.813 99.08C115.546 98.6533 116.386 98.44 117.333 98.44C118.253 98.44 119.066 98.64 119.773 99.04C120.48 99.4267 121.033 99.9867 121.433 100.72C121.833 101.453 122.033 102.313 122.033 103.3V104.02H114.053C114.093 105.073 114.433 105.9 115.073 106.5C115.713 107.087 116.513 107.38 117.473 107.38C118.313 107.38 118.96 107.187 119.413 106.8C119.866 106.413 120.213 105.953 120.453 105.42L121.813 106.08C121.613 106.493 121.333 106.907 120.973 107.32C120.626 107.733 120.166 108.08 119.593 108.36C119.033 108.64 118.313 108.78 117.433 108.78ZM114.073 102.72H120.433C120.38 101.813 120.066 101.107 119.493 100.6C118.933 100.093 118.213 99.84 117.333 99.84C116.44 99.84 115.706 100.093 115.133 100.6C114.56 101.107 114.206 101.813 114.073 102.72ZM124.789 108.5V94.5H126.369V108.5H124.789Z" fill="white"/>
<circle cx="40.5" cy="162.5" r="20.5" fill="#191A23"/>
<path d="M31.2501 166.701C30.5326 167.115 30.2868 168.033 30.701 168.75C31.1152 169.467 32.0326 169.713 32.7501 169.299L31.2501 166.701ZM50.7694 158.388C50.9839 157.588 50.509 156.765 49.7088 156.551L36.6688 153.057C35.8686 152.843 35.0461 153.317 34.8317 154.118C34.6173 154.918 35.0921 155.74 35.8923 155.955L47.4834 159.061L44.3776 170.652C44.1632 171.452 44.6381 172.274 45.4383 172.489C46.2385 172.703 47.061 172.228 47.2754 171.428L50.7694 158.388ZM32.7501 169.299L50.0706 159.299L48.5706 156.701L31.2501 166.701L32.7501 169.299Z" fill="#B9FF66"/>
<path d="M77.6 169.5V155.5H79.28V167.98H86.36V169.5H77.6ZM91.578 169.78C90.898 169.78 90.278 169.66 89.718 169.42C89.158 169.18 88.718 168.833 88.398 168.38C88.078 167.927 87.918 167.373 87.918 166.72C87.918 166.053 88.078 165.507 88.398 165.08C88.718 164.64 89.158 164.313 89.718 164.1C90.278 163.873 90.9046 163.76 91.598 163.76H94.898V163.04C94.898 162.347 94.6913 161.8 94.278 161.4C93.878 161 93.278 160.8 92.478 160.8C91.6913 160.8 91.078 160.993 90.638 161.38C90.198 161.753 89.898 162.26 89.738 162.9L88.258 162.42C88.418 161.873 88.6713 161.38 89.018 160.94C89.3646 160.487 89.8246 160.127 90.398 159.86C90.9846 159.58 91.6846 159.44 92.498 159.44C93.7513 159.44 94.7246 159.767 95.418 160.42C96.1113 161.06 96.458 161.967 96.458 163.14V167.56C96.458 167.96 96.6446 168.16 97.018 168.16H97.918V169.5H96.538C96.098 169.5 95.7446 169.38 95.478 169.14C95.2113 168.887 95.078 168.553 95.078 168.14V168.04H94.838C94.6913 168.293 94.4913 168.56 94.238 168.84C93.998 169.107 93.6646 169.327 93.238 169.5C92.8113 169.687 92.258 169.78 91.578 169.78ZM91.758 168.42C92.6913 168.42 93.4446 168.147 94.018 167.6C94.6046 167.04 94.898 166.26 94.898 165.26V165.04H91.658C91.0313 165.04 90.5113 165.18 90.098 165.46C89.698 165.727 89.498 166.133 89.498 166.68C89.498 167.227 89.7046 167.653 90.118 167.96C90.5446 168.267 91.0913 168.42 91.758 168.42ZM105.502 169.78C104.489 169.78 103.695 169.587 103.122 169.2C102.562 168.813 102.155 168.373 101.902 167.88H101.622V169.5H100.082V155.5H101.662V161.26H101.942C102.102 160.953 102.329 160.667 102.622 160.4C102.915 160.12 103.295 159.893 103.762 159.72C104.242 159.533 104.822 159.44 105.502 159.44C106.355 159.44 107.129 159.647 107.822 160.06C108.529 160.46 109.089 161.04 109.502 161.8C109.915 162.547 110.122 163.44 110.122 164.48V164.74C110.122 165.78 109.909 166.68 109.482 167.44C109.069 168.2 108.509 168.78 107.802 169.18C107.109 169.58 106.342 169.78 105.502 169.78ZM105.082 168.38C106.095 168.38 106.915 168.06 107.542 167.42C108.182 166.767 108.502 165.86 108.502 164.7V164.52C108.502 163.36 108.182 162.46 107.542 161.82C106.915 161.167 106.095 160.84 105.082 160.84C104.082 160.84 103.255 161.167 102.602 161.82C101.962 162.46 101.642 163.36 101.642 164.52V164.7C101.642 165.86 101.962 166.767 102.602 167.42C103.255 168.06 104.082 168.38 105.082 168.38ZM117.433 169.78C116.446 169.78 115.58 169.573 114.833 169.16C114.086 168.733 113.506 168.14 113.093 167.38C112.68 166.62 112.473 165.74 112.473 164.74V164.5C112.473 163.487 112.68 162.6 113.093 161.84C113.506 161.08 114.08 160.493 114.813 160.08C115.546 159.653 116.386 159.44 117.333 159.44C118.253 159.44 119.066 159.64 119.773 160.04C120.48 160.427 121.033 160.987 121.433 161.72C121.833 162.453 122.033 163.313 122.033 164.3V165.02H114.053C114.093 166.073 114.433 166.9 115.073 167.5C115.713 168.087 116.513 168.38 117.473 168.38C118.313 168.38 118.96 168.187 119.413 167.8C119.866 167.413 120.213 166.953 120.453 166.42L121.813 167.08C121.613 167.493 121.333 167.907 120.973 168.32C120.626 168.733 120.166 169.08 119.593 169.36C119.033 169.64 118.313 169.78 117.433 169.78ZM114.073 163.72H120.433C120.38 162.813 120.066 162.107 119.493 161.6C118.933 161.093 118.213 160.84 117.333 160.84C116.44 160.84 115.706 161.093 115.133 161.6C114.56 162.107 114.206 162.813 114.073 163.72ZM124.789 169.5V155.5H126.369V169.5H124.789Z" fill="black"/>
<circle cx="40.5" cy="223.5" r="20.5" fill="#191A23"/>
<path d="M31.2501 227.701C30.5326 228.115 30.2868 229.033 30.701 229.75C31.1152 230.467 32.0326 230.713 32.7501 230.299L31.2501 227.701ZM50.7694 219.388C50.9839 218.588 50.509 217.765 49.7088 217.551L36.6688 214.057C35.8686 213.843 35.0461 214.317 34.8317 215.118C34.6173 215.918 35.0921 216.74 35.8923 216.955L47.4834 220.061L44.3776 231.652C44.1632 232.452 44.6381 233.274 45.4383 233.489C46.2385 233.703 47.061 233.228 47.2754 232.428L50.7694 219.388ZM32.7501 230.299L50.0706 220.299L48.5706 217.701L31.2501 227.701L32.7501 230.299Z" fill="white"/>
<path d="M77.6 230.5V216.5H79.28V228.98H86.36V230.5H77.6ZM91.578 230.78C90.898 230.78 90.278 230.66 89.718 230.42C89.158 230.18 88.718 229.833 88.398 229.38C88.078 228.927 87.918 228.373 87.918 227.72C87.918 227.053 88.078 226.507 88.398 226.08C88.718 225.64 89.158 225.313 89.718 225.1C90.278 224.873 90.9046 224.76 91.598 224.76H94.898V224.04C94.898 223.347 94.6913 222.8 94.278 222.4C93.878 222 93.278 221.8 92.478 221.8C91.6913 221.8 91.078 221.993 90.638 222.38C90.198 222.753 89.898 223.26 89.738 223.9L88.258 223.42C88.418 222.873 88.6713 222.38 89.018 221.94C89.3646 221.487 89.8246 221.127 90.398 220.86C90.9846 220.58 91.6846 220.44 92.498 220.44C93.7513 220.44 94.7246 220.767 95.418 221.42C96.1113 222.06 96.458 222.967 96.458 224.14V228.56C96.458 228.96 96.6446 229.16 97.018 229.16H97.918V230.5H96.538C96.098 230.5 95.7446 230.38 95.478 230.14C95.2113 229.887 95.078 229.553 95.078 229.14V229.04H94.838C94.6913 229.293 94.4913 229.56 94.238 229.84C93.998 230.107 93.6646 230.327 93.238 230.5C92.8113 230.687 92.258 230.78 91.578 230.78ZM91.758 229.42C92.6913 229.42 93.4446 229.147 94.018 228.6C94.6046 228.04 94.898 227.26 94.898 226.26V226.04H91.658C91.0313 226.04 90.5113 226.18 90.098 226.46C89.698 226.727 89.498 227.133 89.498 227.68C89.498 228.227 89.7046 228.653 90.118 228.96C90.5446 229.267 91.0913 229.42 91.758 229.42ZM105.502 230.78C104.489 230.78 103.695 230.587 103.122 230.2C102.562 229.813 102.155 229.373 101.902 228.88H101.622V230.5H100.082V216.5H101.662V222.26H101.942C102.102 221.953 102.329 221.667 102.622 221.4C102.915 221.12 103.295 220.893 103.762 220.72C104.242 220.533 104.822 220.44 105.502 220.44C106.355 220.44 107.129 220.647 107.822 221.06C108.529 221.46 109.089 222.04 109.502 222.8C109.915 223.547 110.122 224.44 110.122 225.48V225.74C110.122 226.78 109.909 227.68 109.482 228.44C109.069 229.2 108.509 229.78 107.802 230.18C107.109 230.58 106.342 230.78 105.502 230.78ZM105.082 229.38C106.095 229.38 106.915 229.06 107.542 228.42C108.182 227.767 108.502 226.86 108.502 225.7V225.52C108.502 224.36 108.182 223.46 107.542 222.82C106.915 222.167 106.095 221.84 105.082 221.84C104.082 221.84 103.255 222.167 102.602 222.82C101.962 223.46 101.642 224.36 101.642 225.52V225.7C101.642 226.86 101.962 227.767 102.602 228.42C103.255 229.06 104.082 229.38 105.082 229.38ZM117.433 230.78C116.446 230.78 115.58 230.573 114.833 230.16C114.086 229.733 113.506 229.14 113.093 228.38C112.68 227.62 112.473 226.74 112.473 225.74V225.5C112.473 224.487 112.68 223.6 113.093 222.84C113.506 222.08 114.08 221.493 114.813 221.08C115.546 220.653 116.386 220.44 117.333 220.44C118.253 220.44 119.066 220.64 119.773 221.04C120.48 221.427 121.033 221.987 121.433 222.72C121.833 223.453 122.033 224.313 122.033 225.3V226.02H114.053C114.093 227.073 114.433 227.9 115.073 228.5C115.713 229.087 116.513 229.38 117.473 229.38C118.313 229.38 118.96 229.187 119.413 228.8C119.866 228.413 120.213 227.953 120.453 227.42L121.813 228.08C121.613 228.493 121.333 228.907 120.973 229.32C120.626 229.733 120.166 230.08 119.593 230.36C119.033 230.64 118.313 230.78 117.433 230.78ZM114.073 224.72H120.433C120.38 223.813 120.066 223.107 119.493 222.6C118.933 222.093 118.213 221.84 117.333 221.84C116.44 221.84 115.706 222.093 115.133 222.6C114.56 223.107 114.206 223.813 114.073 224.72ZM124.789 230.5V216.5H126.369V230.5H124.789Z" fill="black"/>
<circle cx="40.5" cy="284.5" r="20.5" fill="#B9FF66"/>
<path d="M31.2501 288.701C30.5326 289.115 30.2868 290.033 30.701 290.75C31.1152 291.467 32.0326 291.713 32.7501 291.299L31.2501 288.701ZM50.7694 280.388C50.9839 279.588 50.509 278.765 49.7088 278.551L36.6688 275.057C35.8686 274.843 35.0461 275.317 34.8317 276.118C34.6173 276.918 35.0921 277.74 35.8923 277.955L47.4834 281.061L44.3776 292.652C44.1632 293.452 44.6381 294.274 45.4383 294.489C46.2385 294.703 47.061 294.228 47.2754 293.428L50.7694 280.388ZM32.7501 291.299L50.0706 281.299L48.5706 278.701L31.2501 288.701L32.7501 291.299Z" fill="black"/>
<path d="M77.6 291.5V277.5H79.28V289.98H86.36V291.5H77.6ZM91.578 291.78C90.898 291.78 90.278 291.66 89.718 291.42C89.158 291.18 88.718 290.833 88.398 290.38C88.078 289.927 87.918 289.373 87.918 288.72C87.918 288.053 88.078 287.507 88.398 287.08C88.718 286.64 89.158 286.313 89.718 286.1C90.278 285.873 90.9046 285.76 91.598 285.76H94.898V285.04C94.898 284.347 94.6913 283.8 94.278 283.4C93.878 283 93.278 282.8 92.478 282.8C91.6913 282.8 91.078 282.993 90.638 283.38C90.198 283.753 89.898 284.26 89.738 284.9L88.258 284.42C88.418 283.873 88.6713 283.38 89.018 282.94C89.3646 282.487 89.8246 282.127 90.398 281.86C90.9846 281.58 91.6846 281.44 92.498 281.44C93.7513 281.44 94.7246 281.767 95.418 282.42C96.1113 283.06 96.458 283.967 96.458 285.14V289.56C96.458 289.96 96.6446 290.16 97.018 290.16H97.918V291.5H96.538C96.098 291.5 95.7446 291.38 95.478 291.14C95.2113 290.887 95.078 290.553 95.078 290.14V290.04H94.838C94.6913 290.293 94.4913 290.56 94.238 290.84C93.998 291.107 93.6646 291.327 93.238 291.5C92.8113 291.687 92.258 291.78 91.578 291.78ZM91.758 290.42C92.6913 290.42 93.4446 290.147 94.018 289.6C94.6046 289.04 94.898 288.26 94.898 287.26V287.04H91.658C91.0313 287.04 90.5113 287.18 90.098 287.46C89.698 287.727 89.498 288.133 89.498 288.68C89.498 289.227 89.7046 289.653 90.118 289.96C90.5446 290.267 91.0913 290.42 91.758 290.42ZM105.502 291.78C104.489 291.78 103.695 291.587 103.122 291.2C102.562 290.813 102.155 290.373 101.902 289.88H101.622V291.5H100.082V277.5H101.662V283.26H101.942C102.102 282.953 102.329 282.667 102.622 282.4C102.915 282.12 103.295 281.893 103.762 281.72C104.242 281.533 104.822 281.44 105.502 281.44C106.355 281.44 107.129 281.647 107.822 282.06C108.529 282.46 109.089 283.04 109.502 283.8C109.915 284.547 110.122 285.44 110.122 286.48V286.74C110.122 287.78 109.909 288.68 109.482 289.44C109.069 290.2 108.509 290.78 107.802 291.18C107.109 291.58 106.342 291.78 105.502 291.78ZM105.082 290.38C106.095 290.38 106.915 290.06 107.542 289.42C108.182 288.767 108.502 287.86 108.502 286.7V286.52C108.502 285.36 108.182 284.46 107.542 283.82C106.915 283.167 106.095 282.84 105.082 282.84C104.082 282.84 103.255 283.167 102.602 283.82C101.962 284.46 101.642 285.36 101.642 286.52V286.7C101.642 287.86 101.962 288.767 102.602 289.42C103.255 290.06 104.082 290.38 105.082 290.38ZM117.433 291.78C116.446 291.78 115.58 291.573 114.833 291.16C114.086 290.733 113.506 290.14 113.093 289.38C112.68 288.62 112.473 287.74 112.473 286.74V286.5C112.473 285.487 112.68 284.6 113.093 283.84C113.506 283.08 114.08 282.493 114.813 282.08C115.546 281.653 116.386 281.44 117.333 281.44C118.253 281.44 119.066 281.64 119.773 282.04C120.48 282.427 121.033 282.987 121.433 283.72C121.833 284.453 122.033 285.313 122.033 286.3V287.02H114.053C114.093 288.073 114.433 288.9 115.073 289.5C115.713 290.087 116.513 290.38 117.473 290.38C118.313 290.38 118.96 290.187 119.413 289.8C119.866 289.413 120.213 288.953 120.453 288.42L121.813 289.08C121.613 289.493 121.333 289.907 120.973 290.32C120.626 290.733 120.166 291.08 119.593 291.36C119.033 291.64 118.313 291.78 117.433 291.78ZM114.073 285.72H120.433C120.38 284.813 120.066 284.107 119.493 283.6C118.933 283.093 118.213 282.84 117.333 282.84C116.44 282.84 115.706 283.093 115.133 283.6C114.56 284.107 114.206 284.813 114.073 285.72ZM124.789 291.5V277.5H126.369V291.5H124.789Z" fill="black"/>
<circle cx="40.5" cy="345.5" r="20.5" fill="#B9FF66"/>
<path d="M31.2501 349.701C30.5326 350.115 30.2868 351.033 30.701 351.75C31.1152 352.467 32.0326 352.713 32.7501 352.299L31.2501 349.701ZM50.7694 341.388C50.9839 340.588 50.509 339.765 49.7088 339.551L36.6688 336.057C35.8686 335.843 35.0461 336.317 34.8317 337.118C34.6173 337.918 35.0921 338.74 35.8923 338.955L47.4834 342.061L44.3776 353.652C44.1632 354.452 44.6381 355.274 45.4383 355.489C46.2385 355.703 47.061 355.228 47.2754 354.428L50.7694 341.388ZM32.7501 352.299L50.0706 342.299L48.5706 339.701L31.2501 349.701L32.7501 352.299Z" fill="white"/>
<path d="M77.6 352.5V338.5H79.28V350.98H86.36V352.5H77.6ZM91.578 352.78C90.898 352.78 90.278 352.66 89.718 352.42C89.158 352.18 88.718 351.833 88.398 351.38C88.078 350.927 87.918 350.373 87.918 349.72C87.918 349.053 88.078 348.507 88.398 348.08C88.718 347.64 89.158 347.313 89.718 347.1C90.278 346.873 90.9046 346.76 91.598 346.76H94.898V346.04C94.898 345.347 94.6913 344.8 94.278 344.4C93.878 344 93.278 343.8 92.478 343.8C91.6913 343.8 91.078 343.993 90.638 344.38C90.198 344.753 89.898 345.26 89.738 345.9L88.258 345.42C88.418 344.873 88.6713 344.38 89.018 343.94C89.3646 343.487 89.8246 343.127 90.398 342.86C90.9846 342.58 91.6846 342.44 92.498 342.44C93.7513 342.44 94.7246 342.767 95.418 343.42C96.1113 344.06 96.458 344.967 96.458 346.14V350.56C96.458 350.96 96.6446 351.16 97.018 351.16H97.918V352.5H96.538C96.098 352.5 95.7446 352.38 95.478 352.14C95.2113 351.887 95.078 351.553 95.078 351.14V351.04H94.838C94.6913 351.293 94.4913 351.56 94.238 351.84C93.998 352.107 93.6646 352.327 93.238 352.5C92.8113 352.687 92.258 352.78 91.578 352.78ZM91.758 351.42C92.6913 351.42 93.4446 351.147 94.018 350.6C94.6046 350.04 94.898 349.26 94.898 348.26V348.04H91.658C91.0313 348.04 90.5113 348.18 90.098 348.46C89.698 348.727 89.498 349.133 89.498 349.68C89.498 350.227 89.7046 350.653 90.118 350.96C90.5446 351.267 91.0913 351.42 91.758 351.42ZM105.502 352.78C104.489 352.78 103.695 352.587 103.122 352.2C102.562 351.813 102.155 351.373 101.902 350.88H101.622V352.5H100.082V338.5H101.662V344.26H101.942C102.102 343.953 102.329 343.667 102.622 343.4C102.915 343.12 103.295 342.893 103.762 342.72C104.242 342.533 104.822 342.44 105.502 342.44C106.355 342.44 107.129 342.647 107.822 343.06C108.529 343.46 109.089 344.04 109.502 344.8C109.915 345.547 110.122 346.44 110.122 347.48V347.74C110.122 348.78 109.909 349.68 109.482 350.44C109.069 351.2 108.509 351.78 107.802 352.18C107.109 352.58 106.342 352.78 105.502 352.78ZM105.082 351.38C106.095 351.38 106.915 351.06 107.542 350.42C108.182 349.767 108.502 348.86 108.502 347.7V347.52C108.502 346.36 108.182 345.46 107.542 344.82C106.915 344.167 106.095 343.84 105.082 343.84C104.082 343.84 103.255 344.167 102.602 344.82C101.962 345.46 101.642 346.36 101.642 347.52V347.7C101.642 348.86 101.962 349.767 102.602 350.42C103.255 351.06 104.082 351.38 105.082 351.38ZM117.433 352.78C116.446 352.78 115.58 352.573 114.833 352.16C114.086 351.733 113.506 351.14 113.093 350.38C112.68 349.62 112.473 348.74 112.473 347.74V347.5C112.473 346.487 112.68 345.6 113.093 344.84C113.506 344.08 114.08 343.493 114.813 343.08C115.546 342.653 116.386 342.44 117.333 342.44C118.253 342.44 119.066 342.64 119.773 343.04C120.48 343.427 121.033 343.987 121.433 344.72C121.833 345.453 122.033 346.313 122.033 347.3V348.02H114.053C114.093 349.073 114.433 349.9 115.073 350.5C115.713 351.087 116.513 351.38 117.473 351.38C118.313 351.38 118.96 351.187 119.413 350.8C119.866 350.413 120.213 349.953 120.453 349.42L121.813 350.08C121.613 350.493 121.333 350.907 120.973 351.32C120.626 351.733 120.166 352.08 119.593 352.36C119.033 352.64 118.313 352.78 117.433 352.78ZM114.073 346.72H120.433C120.38 345.813 120.066 345.107 119.493 344.6C118.933 344.093 118.213 343.84 117.333 343.84C116.44 343.84 115.706 344.093 115.133 344.6C114.56 345.107 114.206 345.813 114.073 346.72ZM124.789 352.5V338.5H126.369V352.5H124.789Z" fill="white"/>
<path d="M21.6 407V393H23.28V405.48H30.36V407H21.6ZM35.578 407.28C34.898 407.28 34.278 407.16 33.718 406.92C33.158 406.68 32.718 406.333 32.398 405.88C32.078 405.427 31.918 404.873 31.918 404.22C31.918 403.553 32.078 403.007 32.398 402.58C32.718 402.14 33.158 401.813 33.718 401.6C34.278 401.373 34.9046 401.26 35.598 401.26H38.898V400.54C38.898 399.847 38.6913 399.3 38.278 398.9C37.878 398.5 37.278 398.3 36.478 398.3C35.6913 398.3 35.078 398.493 34.638 398.88C34.198 399.253 33.898 399.76 33.738 400.4L32.258 399.92C32.418 399.373 32.6713 398.88 33.018 398.44C33.3646 397.987 33.8246 397.627 34.398 397.36C34.9846 397.08 35.6846 396.94 36.498 396.94C37.7513 396.94 38.7246 397.267 39.418 397.92C40.1113 398.56 40.458 399.467 40.458 400.64V405.06C40.458 405.46 40.6446 405.66 41.018 405.66H41.918V407H40.538C40.098 407 39.7446 406.88 39.478 406.64C39.2113 406.387 39.078 406.053 39.078 405.64V405.54H38.838C38.6913 405.793 38.4913 406.06 38.238 406.34C37.998 406.607 37.6646 406.827 37.238 407C36.8113 407.187 36.258 407.28 35.578 407.28ZM35.758 405.92C36.6913 405.92 37.4446 405.647 38.018 405.1C38.6046 404.54 38.898 403.76 38.898 402.76V402.54H35.658C35.0313 402.54 34.5113 402.68 34.098 402.96C33.698 403.227 33.498 403.633 33.498 404.18C33.498 404.727 33.7046 405.153 34.118 405.46C34.5446 405.767 35.0913 405.92 35.758 405.92ZM49.5019 407.28C48.4885 407.28 47.6952 407.087 47.1219 406.7C46.5619 406.313 46.1552 405.873 45.9019 405.38H45.6219V407H44.0819V393H45.6619V398.76H45.9419C46.1019 398.453 46.3285 398.167 46.6219 397.9C46.9152 397.62 47.2952 397.393 47.7619 397.22C48.2419 397.033 48.8219 396.94 49.5019 396.94C50.3552 396.94 51.1285 397.147 51.8219 397.56C52.5285 397.96 53.0885 398.54 53.5019 399.3C53.9152 400.047 54.1219 400.94 54.1219 401.98V402.24C54.1219 403.28 53.9085 404.18 53.4819 404.94C53.0685 405.7 52.5085 406.28 51.8019 406.68C51.1085 407.08 50.3419 407.28 49.5019 407.28ZM49.0819 405.88C50.0952 405.88 50.9152 405.56 51.5419 404.92C52.1819 404.267 52.5019 403.36 52.5019 402.2V402.02C52.5019 400.86 52.1819 399.96 51.5419 399.32C50.9152 398.667 50.0952 398.34 49.0819 398.34C48.0819 398.34 47.2552 398.667 46.6019 399.32C45.9619 399.96 45.6419 400.86 45.6419 402.02V402.2C45.6419 403.36 45.9619 404.267 46.6019 404.92C47.2552 405.56 48.0819 405.88 49.0819 405.88ZM61.433 407.28C60.4463 407.28 59.5796 407.073 58.833 406.66C58.0863 406.233 57.5063 405.64 57.093 404.88C56.6796 404.12 56.473 403.24 56.473 402.24V402C56.473 400.987 56.6796 400.1 57.093 399.34C57.5063 398.58 58.0796 397.993 58.813 397.58C59.5463 397.153 60.3863 396.94 61.333 396.94C62.253 396.94 63.0663 397.14 63.773 397.54C64.4796 397.927 65.033 398.487 65.433 399.22C65.833 399.953 66.033 400.813 66.033 401.8V402.52H58.053C58.093 403.573 58.433 404.4 59.073 405C59.713 405.587 60.513 405.88 61.473 405.88C62.313 405.88 62.9596 405.687 63.413 405.3C63.8663 404.913 64.213 404.453 64.453 403.92L65.813 404.58C65.613 404.993 65.333 405.407 64.973 405.82C64.6263 406.233 64.1663 406.58 63.593 406.86C63.033 407.14 62.313 407.28 61.433 407.28ZM58.073 401.22H64.433C64.3796 400.313 64.0663 399.607 63.493 399.1C62.933 398.593 62.213 398.34 61.333 398.34C60.4396 398.34 59.7063 398.593 59.133 399.1C58.5596 399.607 58.2063 400.313 58.073 401.22ZM68.7889 407V393H70.3689V407H68.7889Z" fill="#B9FF66"/>
<path d="M87.25 403.701C86.5326 404.115 86.2867 405.033 86.701 405.75C87.1152 406.467 88.0326 406.713 88.75 406.299L87.25 403.701ZM106.769 395.388C106.984 394.588 106.509 393.766 105.709 393.551L92.6687 390.057C91.8685 389.843 91.046 390.318 90.8316 391.118C90.6172 391.918 91.0921 392.74 91.8923 392.955L103.483 396.061L100.378 407.652C100.163 408.452 100.638 409.274 101.438 409.489C102.238 409.703 103.061 409.228 103.275 408.428L106.769 395.388ZM88.75 406.299L106.071 396.299L104.571 393.701L87.25 403.701L88.75 406.299Z" fill="#B9FF66"/>
<path d="M21.6 455V441H23.28V453.48H30.36V455H21.6ZM35.578 455.28C34.898 455.28 34.278 455.16 33.718 454.92C33.158 454.68 32.718 454.333 32.398 453.88C32.078 453.427 31.918 452.873 31.918 452.22C31.918 451.553 32.078 451.007 32.398 450.58C32.718 450.14 33.158 449.813 33.718 449.6C34.278 449.373 34.9046 449.26 35.598 449.26H38.898V448.54C38.898 447.847 38.6913 447.3 38.278 446.9C37.878 446.5 37.278 446.3 36.478 446.3C35.6913 446.3 35.078 446.493 34.638 446.88C34.198 447.253 33.898 447.76 33.738 448.4L32.258 447.92C32.418 447.373 32.6713 446.88 33.018 446.44C33.3646 445.987 33.8246 445.627 34.398 445.36C34.9846 445.08 35.6846 444.94 36.498 444.94C37.7513 444.94 38.7246 445.267 39.418 445.92C40.1113 446.56 40.458 447.467 40.458 448.64V453.06C40.458 453.46 40.6446 453.66 41.018 453.66H41.918V455H40.538C40.098 455 39.7446 454.88 39.478 454.64C39.2113 454.387 39.078 454.053 39.078 453.64V453.54H38.838C38.6913 453.793 38.4913 454.06 38.238 454.34C37.998 454.607 37.6646 454.827 37.238 455C36.8113 455.187 36.258 455.28 35.578 455.28ZM35.758 453.92C36.6913 453.92 37.4446 453.647 38.018 453.1C38.6046 452.54 38.898 451.76 38.898 450.76V450.54H35.658C35.0313 450.54 34.5113 450.68 34.098 450.96C33.698 451.227 33.498 451.633 33.498 452.18C33.498 452.727 33.7046 453.153 34.118 453.46C34.5446 453.767 35.0913 453.92 35.758 453.92ZM49.5019 455.28C48.4885 455.28 47.6952 455.087 47.1219 454.7C46.5619 454.313 46.1552 453.873 45.9019 453.38H45.6219V455H44.0819V441H45.6619V446.76H45.9419C46.1019 446.453 46.3285 446.167 46.6219 445.9C46.9152 445.62 47.2952 445.393 47.7619 445.22C48.2419 445.033 48.8219 444.94 49.5019 444.94C50.3552 444.94 51.1285 445.147 51.8219 445.56C52.5285 445.96 53.0885 446.54 53.5019 447.3C53.9152 448.047 54.1219 448.94 54.1219 449.98V450.24C54.1219 451.28 53.9085 452.18 53.4819 452.94C53.0685 453.7 52.5085 454.28 51.8019 454.68C51.1085 455.08 50.3419 455.28 49.5019 455.28ZM49.0819 453.88C50.0952 453.88 50.9152 453.56 51.5419 452.92C52.1819 452.267 52.5019 451.36 52.5019 450.2V450.02C52.5019 448.86 52.1819 447.96 51.5419 447.32C50.9152 446.667 50.0952 446.34 49.0819 446.34C48.0819 446.34 47.2552 446.667 46.6019 447.32C45.9619 447.96 45.6419 448.86 45.6419 450.02V450.2C45.6419 451.36 45.9619 452.267 46.6019 452.92C47.2552 453.56 48.0819 453.88 49.0819 453.88ZM61.433 455.28C60.4463 455.28 59.5796 455.073 58.833 454.66C58.0863 454.233 57.5063 453.64 57.093 452.88C56.6796 452.12 56.473 451.24 56.473 450.24V450C56.473 448.987 56.6796 448.1 57.093 447.34C57.5063 446.58 58.0796 445.993 58.813 445.58C59.5463 445.153 60.3863 444.94 61.333 444.94C62.253 444.94 63.0663 445.14 63.773 445.54C64.4796 445.927 65.033 446.487 65.433 447.22C65.833 447.953 66.033 448.813 66.033 449.8V450.52H58.053C58.093 451.573 58.433 452.4 59.073 453C59.713 453.587 60.513 453.88 61.473 453.88C62.313 453.88 62.9596 453.687 63.413 453.3C63.8663 452.913 64.213 452.453 64.453 451.92L65.813 452.58C65.613 452.993 65.333 453.407 64.973 453.82C64.6263 454.233 64.1663 454.58 63.593 454.86C63.033 455.14 62.313 455.28 61.433 455.28ZM58.073 449.22H64.433C64.3796 448.313 64.0663 447.607 63.493 447.1C62.933 446.593 62.213 446.34 61.333 446.34C60.4396 446.34 59.7063 446.593 59.133 447.1C58.5596 447.607 58.2063 448.313 58.073 449.22ZM68.7889 455V441H70.3689V455H68.7889Z" fill="white"/>
<path d="M87.25 451.701C86.5326 452.115 86.2867 453.033 86.701 453.75C87.1152 454.467 88.0326 454.713 88.75 454.299L87.25 451.701ZM106.769 443.388C106.984 442.588 106.509 441.766 105.709 441.551L92.6687 438.057C91.8685 437.843 91.046 438.318 90.8316 439.118C90.6172 439.918 91.0921 440.74 91.8923 440.955L103.483 444.061L100.378 455.652C100.163 456.452 100.638 457.274 101.438 457.489C102.238 457.703 103.061 457.228 103.275 456.428L106.769 443.388ZM88.75 454.299L106.071 444.299L104.571 441.701L87.25 451.701L88.75 454.299Z" fill="white"/>
<path d="M21.6 503V489H23.28V501.48H30.36V503H21.6ZM35.578 503.28C34.898 503.28 34.278 503.16 33.718 502.92C33.158 502.68 32.718 502.333 32.398 501.88C32.078 501.427 31.918 500.873 31.918 500.22C31.918 499.553 32.078 499.007 32.398 498.58C32.718 498.14 33.158 497.813 33.718 497.6C34.278 497.373 34.9046 497.26 35.598 497.26H38.898V496.54C38.898 495.847 38.6913 495.3 38.278 494.9C37.878 494.5 37.278 494.3 36.478 494.3C35.6913 494.3 35.078 494.493 34.638 494.88C34.198 495.253 33.898 495.76 33.738 496.4L32.258 495.92C32.418 495.373 32.6713 494.88 33.018 494.44C33.3646 493.987 33.8246 493.627 34.398 493.36C34.9846 493.08 35.6846 492.94 36.498 492.94C37.7513 492.94 38.7246 493.267 39.418 493.92C40.1113 494.56 40.458 495.467 40.458 496.64V501.06C40.458 501.46 40.6446 501.66 41.018 501.66H41.918V503H40.538C40.098 503 39.7446 502.88 39.478 502.64C39.2113 502.387 39.078 502.053 39.078 501.64V501.54H38.838C38.6913 501.793 38.4913 502.06 38.238 502.34C37.998 502.607 37.6646 502.827 37.238 503C36.8113 503.187 36.258 503.28 35.578 503.28ZM35.758 501.92C36.6913 501.92 37.4446 501.647 38.018 501.1C38.6046 500.54 38.898 499.76 38.898 498.76V498.54H35.658C35.0313 498.54 34.5113 498.68 34.098 498.96C33.698 499.227 33.498 499.633 33.498 500.18C33.498 500.727 33.7046 501.153 34.118 501.46C34.5446 501.767 35.0913 501.92 35.758 501.92ZM49.5019 503.28C48.4885 503.28 47.6952 503.087 47.1219 502.7C46.5619 502.313 46.1552 501.873 45.9019 501.38H45.6219V503H44.0819V489H45.6619V494.76H45.9419C46.1019 494.453 46.3285 494.167 46.6219 493.9C46.9152 493.62 47.2952 493.393 47.7619 493.22C48.2419 493.033 48.8219 492.94 49.5019 492.94C50.3552 492.94 51.1285 493.147 51.8219 493.56C52.5285 493.96 53.0885 494.54 53.5019 495.3C53.9152 496.047 54.1219 496.94 54.1219 497.98V498.24C54.1219 499.28 53.9085 500.18 53.4819 500.94C53.0685 501.7 52.5085 502.28 51.8019 502.68C51.1085 503.08 50.3419 503.28 49.5019 503.28ZM49.0819 501.88C50.0952 501.88 50.9152 501.56 51.5419 500.92C52.1819 500.267 52.5019 499.36 52.5019 498.2V498.02C52.5019 496.86 52.1819 495.96 51.5419 495.32C50.9152 494.667 50.0952 494.34 49.0819 494.34C48.0819 494.34 47.2552 494.667 46.6019 495.32C45.9619 495.96 45.6419 496.86 45.6419 498.02V498.2C45.6419 499.36 45.9619 500.267 46.6019 500.92C47.2552 501.56 48.0819 501.88 49.0819 501.88ZM61.433 503.28C60.4463 503.28 59.5796 503.073 58.833 502.66C58.0863 502.233 57.5063 501.64 57.093 500.88C56.6796 500.12 56.473 499.24 56.473 498.24V498C56.473 496.987 56.6796 496.1 57.093 495.34C57.5063 494.58 58.0796 493.993 58.813 493.58C59.5463 493.153 60.3863 492.94 61.333 492.94C62.253 492.94 63.0663 493.14 63.773 493.54C64.4796 493.927 65.033 494.487 65.433 495.22C65.833 495.953 66.033 496.813 66.033 497.8V498.52H58.053C58.093 499.573 58.433 500.4 59.073 501C59.713 501.587 60.513 501.88 61.473 501.88C62.313 501.88 62.9596 501.687 63.413 501.3C63.8663 500.913 64.213 500.453 64.453 499.92L65.813 500.58C65.613 500.993 65.333 501.407 64.973 501.82C64.6263 502.233 64.1663 502.58 63.593 502.86C63.033 503.14 62.313 503.28 61.433 503.28ZM58.073 497.22H64.433C64.3796 496.313 64.0663 495.607 63.493 495.1C62.933 494.593 62.213 494.34 61.333 494.34C60.4396 494.34 59.7063 494.593 59.133 495.1C58.5596 495.607 58.2063 496.313 58.073 497.22ZM68.7889 503V489H70.3689V503H68.7889Z" fill="black"/>
<path d="M87.25 499.701C86.5326 500.115 86.2867 501.033 86.701 501.75C87.1152 502.467 88.0326 502.713 88.75 502.299L87.25 499.701ZM106.769 491.388C106.984 490.588 106.509 489.766 105.709 489.551L92.6687 486.057C91.8685 485.843 91.046 486.318 90.8316 487.118C90.6172 487.918 91.0921 488.74 91.8923 488.955L103.483 492.061L100.378 503.652C100.163 504.452 100.638 505.274 101.438 505.489C102.238 505.703 103.061 505.228 103.275 504.428L106.769 491.388ZM88.75 502.299L106.071 492.299L104.571 489.701L87.25 499.701L88.75 502.299Z" fill="black"/>
</svg>
