<svg width="199" height="209" viewBox="0 0 199 209" fill="none" xmlns="http://www.w3.org/2000/svg">
<path d="M111.228 66.6289L111.396 67.5342L112.063 66.9004L159.196 22.1758L131.226 80.8232L130.829 81.6543L131.742 81.5342L196.162 73.0547L139.062 104.061L138.252 104.5L139.062 104.939L196.162 135.944L131.742 127.466L130.829 127.346L131.226 128.177L159.196 186.823L112.063 142.1L111.396 141.466L111.228 142.371L99.3848 206.259L87.542 142.371L87.374 141.466L86.7061 142.1L39.5723 186.823L67.5439 128.177L67.9404 127.346L67.0273 127.466L2.60645 135.944L59.708 104.939L60.5176 104.5L59.708 104.061L2.60645 73.0547L67.0273 81.5342L67.9404 81.6543L67.5439 80.8232L39.5723 22.1758L86.7061 66.9004L87.374 67.5342L87.542 66.6289L99.3848 2.74023L111.228 66.6289Z" stroke="black"/>
</svg>
